<?xml version="1.0" encoding="UTF-8"?>
<svg version="1.1" xmlns="http://www.w3.org/2000/svg" width="1254" height="1254">
<path d="M0 0 C413.82 0 827.64 0 1254 0 C1254 413.82 1254 827.64 1254 1254 C840.18 1254 426.36 1254 0 1254 C0 840.18 0 426.36 0 0 Z " fill="#004CD6" transform="translate(0,0)"/>
<path d="M0 0 C1.11397156 0.00432037 2.22794312 0.00864075 3.37567139 0.01309204 C19.63765646 0.08694262 35.57806778 0.5199218 51.625 3.375 C52.64480957 3.54660645 53.66461914 3.71821289 54.71533203 3.89501953 C126.42573648 16.15910979 198.33578621 56.96970214 242.625 115.375 C243.81222656 116.87160156 243.81222656 116.87160156 245.0234375 118.3984375 C264.90685083 143.53661544 281.57029087 172.81027932 291.87695312 203.18505859 C292.74346367 205.72180781 293.64657967 208.24458016 294.546875 210.76953125 C304.47672685 239.06161624 311.05096161 269.30375953 311.625 299.375 C311.65078125 300.42896973 311.6765625 301.48293945 311.703125 302.56884766 C312.55431559 341.86725312 306.78535795 379.02987281 294.625 416.375 C294.30692383 417.3645166 293.98884766 418.3540332 293.66113281 419.37353516 C285.82910253 443.39881725 274.30404708 466.48639683 260.23168945 487.45068359 C257.15994675 492.1339846 255.75124961 495.24694856 256.08984375 500.93359375 C257.71680211 508.35584904 264.37685595 513.12398003 269.84375 517.8828125 C272.93114984 520.64933089 275.84238508 523.54746213 278.75 526.5 C282.59839462 530.3982081 286.52713723 534.11781243 290.69921875 537.66796875 C293.74436253 540.36721385 296.55342701 543.29561063 299.41015625 546.19140625 C301.40159461 548.15474671 303.43802578 549.99579669 305.5625 551.8125 C309.65278779 555.31729928 313.3920907 559.12698614 317.17578125 562.95703125 C319.9354604 565.68149918 322.81680657 568.21047376 325.76171875 570.73046875 C328.24130858 572.9189537 330.5312118 575.27044013 332.84765625 577.62890625 C334.69093574 579.43977643 336.60322799 581.12821354 338.5625 582.8125 C342.09134763 585.85179651 345.35505027 589.08516847 348.62109375 592.40234375 C351.20746151 594.94837829 353.9403528 597.29521557 356.69140625 599.66015625 C359.19069138 601.87669397 361.50781884 604.24662281 363.84765625 606.62890625 C365.69093574 608.43977643 367.60322799 610.12821354 369.5625 611.8125 C372.37076347 614.23117779 375.02470593 616.73399683 377.625 619.375 C380.20509215 621.99540609 382.83603607 624.47823412 385.625 626.875 C389.05282597 629.82078795 392.23634817 632.93675347 395.375 636.1875 C397.32698734 638.08526547 399.32016319 639.87231452 401.375 641.65625 C405.56011598 645.29211786 409.60247552 649.06095567 413.625 652.875 C415.10780966 654.27762211 416.59088966 655.67995847 418.07421875 657.08203125 C418.82364746 657.79053223 419.57307617 658.4990332 420.34521484 659.22900391 C422.60265245 661.35396391 424.87127443 663.46619975 427.14453125 665.57421875 C427.86576172 666.24453125 428.58699219 666.91484375 429.33007812 667.60546875 C430.70001967 668.87764802 432.07229232 670.14732325 433.44726562 671.4140625 C439.33974778 676.89742931 444.90622286 682.43051877 445.9140625 690.765625 C446.18367689 698.75601515 444.41094067 704.47462038 439.375 710.6875 C433.88776405 716.47011511 429.48926617 717.54230208 421.6875 717.875 C412.31471222 717.64663759 407.58546329 713.79842793 401.3203125 707.23828125 C399.07675183 704.77243231 396.88344131 702.26741271 394.70703125 699.7421875 C392.06454376 696.73778334 389.34683425 693.80742995 386.625 690.875 C383.45265474 687.45542759 380.29239087 684.03658634 377.25 680.5 C373.26062636 675.88484226 369.0607815 671.46610776 364.89038086 667.01538086 C360.06641795 661.86223376 355.32395672 656.64245054 350.625 651.375 C345.355812 645.49599639 340.05266756 639.64998462 334.71142578 633.83642578 C331.83106171 630.69868887 328.96983753 627.54496182 326.125 624.375 C319.49605302 616.99249599 312.77338378 609.69612041 306.03686523 602.41186523 C305.52969971 601.86344971 305.02253418 601.31503418 304.5 600.75 C303.99218994 600.20093994 303.48437988 599.65187988 302.96118164 599.08618164 C300.03136807 595.91352129 297.12840106 592.71954488 294.25 589.5 C290.43175646 585.23745175 286.53642511 581.051747 282.625 576.875 C277.99434545 571.93023639 273.41288977 566.94992498 268.8984375 561.8984375 C265.65918294 558.30297626 262.36792331 554.75637726 259.07910156 551.20629883 C255.93776465 547.810898 252.83160083 544.38744033 249.75 540.9375 C242.31757592 532.16638468 242.31757592 532.16638468 231.7421875 529.0078125 C227.09212124 529.0788223 225.03382556 530.96617444 221.75 534.25 C221.24025635 534.74741699 220.7305127 535.24483398 220.20532227 535.75732422 C218.65715218 537.27682002 217.13842566 538.82096901 215.625 540.375 C208.9159119 547.17461552 202.14389788 553.4716491 194.625 559.375 C193.16320312 560.54482422 193.16320312 560.54482422 191.671875 561.73828125 C153.11703665 592.10748181 108.73929714 611.43315238 61.02099609 621.828125 C58.93951283 622.3032139 56.87560392 622.85406539 54.81640625 623.41796875 C24.72324503 630.99120699 -11.88685094 629.45997106 -42.375 625.375 C-43.51146973 625.23819824 -43.51146973 625.23819824 -44.67089844 625.09863281 C-59.56925017 623.28795893 -73.92482658 619.32807974 -88.375 615.375 C-89.86973245 614.97373768 -91.36451468 614.57266069 -92.859375 614.171875 C-99.58169469 612.32250321 -105.92943292 610.01780878 -112.375 607.375 C-113.16704834 607.05378174 -113.95909668 606.73256348 -114.77514648 606.40161133 C-153.12582013 590.74495773 -186.52395139 568.74483396 -216.8125 540.625 C-217.46307373 540.02308838 -218.11364746 539.42117676 -218.78393555 538.80102539 C-222.71210521 535.10912143 -226.32627738 531.2521601 -229.83618164 527.16113281 C-231.62142366 525.08897184 -233.4967463 523.1128185 -235.375 521.125 C-251.24764714 503.491735 -264.02063306 483.26246525 -275.25244141 462.44824219 C-276.30584165 460.50272787 -277.37431017 458.56650498 -278.44921875 456.6328125 C-281.19066737 451.65567517 -283.80317787 446.80202957 -285.6484375 441.421875 C-286.53653689 438.91991759 -287.57998105 436.5031249 -288.625 434.0625 C-293.37680914 422.70135632 -297.98481942 411.19753722 -300.703125 399.1640625 C-301.42386998 396.17213275 -302.35052904 393.29791177 -303.3125 390.375 C-310.89843826 366.13487543 -312.56243738 340.6347635 -312.56030273 315.39892578 C-312.56249098 312.51189452 -312.58072269 309.62524547 -312.59960938 306.73828125 C-312.63287954 295.76089103 -312.03555268 285.22961322 -310.375 274.375 C-310.15788492 272.70098042 -309.94379379 271.02656229 -309.734375 269.3515625 C-302.94926061 219.48181354 -284.02430172 171.09898179 -254.375 130.375 C-253.64023437 129.34632813 -252.90546875 128.31765625 -252.1484375 127.2578125 C-246.45679012 119.45508136 -240.16996309 112.2142899 -233.78466797 104.97998047 C-232.1051517 103.06776364 -230.46112846 101.12635156 -228.8125 99.1875 C-221.62167595 90.99496912 -213.69960996 83.40030605 -205.375 76.375 C-204.46878906 75.57964844 -203.56257813 74.78429687 -202.62890625 73.96484375 C-188.9198346 62.00563278 -174.07487533 51.78656189 -158.40478516 42.57568359 C-156.59459932 41.5049001 -154.80183461 40.40478998 -153.01171875 39.30078125 C-125.53082582 22.75855877 -93.54311579 12.23214541 -62.25 5.75 C-61.32832031 5.55567383 -60.40664063 5.36134766 -59.45703125 5.16113281 C-39.70398564 1.24641415 -20.1032103 -0.14879672 0 0 Z " fill="#024CD6" transform="translate(584.375,264.625)"/>
<path d="M0 0 C1.78775913 0.00503731 3.57551967 0.00959618 5.36328125 0.01367188 C9.65889043 0.02447265 13.95442855 0.04160714 18.25 0.0625 C15.57657336 1.84478443 14.11247098 2.45227029 11.125 3.25 C1.17255754 6.5621214 -4.47088363 13.72222274 -10.1953125 22.07421875 C-10.61111572 22.66920166 -11.02691895 23.26418457 -11.45532227 23.87719727 C-12.87964308 26.14157151 -12.87964308 26.14157151 -13.93334961 29.15209961 C-15.51893731 32.84414043 -16.84308 35.26588968 -19.75 38.0625 C-25.85218701 40.18173681 -32.70927154 39.46427121 -39.0625 39.25 C-40.82481324 39.22941942 -42.5872006 39.21439612 -44.34960938 39.20507812 C-46.90907292 39.18931528 -49.4674804 39.16833325 -52.02661133 39.12348938 C-56.75730617 39.04143345 -61.29571289 39.2170259 -65.99389648 39.80639648 C-72.55722772 40.41627641 -79.18313827 40.33868301 -85.77020264 40.44873047 C-90.73267072 40.53785182 -95.69437016 40.66053578 -100.65625 40.77734375 C-108.57973319 40.96340261 -116.5021711 41.10272576 -124.42721558 41.20167542 C-129.1711407 41.27042592 -133.91377372 41.37673986 -138.65679932 41.49099731 C-140.95905834 41.53846219 -143.26169716 41.57023586 -145.56439209 41.58590698 C-148.803034 41.61016812 -152.03609732 41.68959079 -155.2734375 41.78125 C-156.71124573 41.77243553 -156.71124573 41.77243553 -158.17810059 41.76344299 C-162.28723892 41.92915117 -164.7735731 42.15914309 -167.86038208 45.01495361 C-169.6556855 47.29403504 -171.22696234 49.59504284 -172.75 52.0625 C-173.62496628 53.35075391 -174.5020684 54.63756431 -175.3828125 55.921875 C-176.21846628 57.21558226 -177.04904406 58.51257981 -177.875 59.8125 C-178.56432617 60.88769897 -178.56432617 60.88769897 -179.26757812 61.98461914 C-184.09317218 69.54197101 -188.81811015 77.16244432 -193.5078125 84.8046875 C-195.65945194 88.30937962 -197.84289725 91.79078852 -200.0546875 95.2578125 C-200.57224609 96.07838135 -201.08980469 96.8989502 -201.62304688 97.74438477 C-202.60156408 99.29534725 -203.58942239 100.8404678 -204.58789062 102.37866211 C-205.02037109 103.06968018 -205.45285156 103.76069824 -205.8984375 104.47265625 C-206.28177246 105.07215088 -206.66510742 105.67164551 -207.06005859 106.28930664 C-207.97311146 108.63591067 -207.72226675 109.76186273 -206.75 112.0625 C-205.76 112.7225 -204.77 113.3825 -203.75 114.0625 C-204.71099609 115.62484375 -204.71099609 115.62484375 -205.69140625 117.21875 C-213.99827875 130.90520401 -220.89522678 144.18452321 -223.75 160.0625 C-223.09 160.0625 -222.43 160.0625 -221.75 160.0625 C-221.58939087 158.99974854 -221.58939087 158.99974854 -221.42553711 157.91552734 C-220.67227342 154.73423373 -219.48298317 152.29567165 -217.94140625 149.4140625 C-217.36350342 148.3324585 -216.78560059 147.25085449 -216.19018555 146.13647461 C-215.57054932 144.99831299 -214.95091309 143.86015137 -214.3125 142.6875 C-213.68448486 141.52677979 -213.05646973 140.36605957 -212.40942383 139.17016602 C-200.98042723 118.29292723 -200.98042723 118.29292723 -195.75 113.0625 C-193.87990711 112.96315422 -192.00603009 112.93450487 -190.13330078 112.93310547 C-188.92389832 112.92999359 -187.71449585 112.92688171 -186.46844482 112.92367554 C-185.12740043 112.92548062 -183.78635631 112.92749056 -182.4453125 112.9296875 C-181.06064833 112.92867363 -179.67598436 112.92733522 -178.2913208 112.9256897 C-174.58406771 112.92298675 -170.87685631 112.92745207 -167.16960907 112.93392944 C-164.88579686 112.9374832 -162.60199089 112.93911394 -160.31817627 112.94018555 C-138.45049484 112.95297346 -116.6011627 113.13622749 -94.75 114.0625 C-98.68141057 118.78567138 -102.79471925 123.2057355 -107.1875 127.5 C-111.28859007 131.55551599 -115.27613803 135.63267314 -119.00390625 140.0390625 C-121.22504392 142.61299832 -123.55593142 145.07656745 -125.875 147.5625 C-129.78248793 151.83333666 -132.90238712 156.03171724 -135.75 161.0625 C-130.38728526 157.23198947 -125.39607903 153.08143898 -120.4375 148.75 C-114.30504754 143.39446552 -108.08277486 138.18065534 -101.75 133.0625 C-100.4317962 131.98628367 -99.11412654 130.90941291 -97.796875 129.83203125 C-96.38546862 128.67962387 -94.97401039 127.52727998 -93.5625 126.375 C-92.90902588 125.84003906 -92.25555176 125.30507813 -91.58227539 124.75390625 C-90.28913519 123.70075541 -88.98660518 122.65903158 -87.67504883 121.62890625 C-85.73008499 120.09459665 -85.73008499 120.09459665 -84.00268555 118.35546875 C-77.74267979 112.67052472 -71.04107435 113.30919006 -62.9375 113.4375 C-60.32556023 113.46921754 -57.71805375 113.47160656 -55.10546875 113.4609375 C-53.38299927 113.48679932 -53.38299927 113.48679932 -51.62573242 113.51318359 C-48.71595921 113.33539216 -48.71595921 113.33539216 -47.04541016 111.44946289 C-45.44778704 108.50563303 -44.02982493 105.53395137 -42.66796875 102.47265625 C-42.06656969 101.13142873 -41.46516992 99.79020153 -40.86376953 98.44897461 C-40.55006409 97.74433075 -40.23635864 97.03968689 -39.91314697 96.31369019 C-38.24898718 92.58044415 -36.56456092 88.85639245 -34.87890625 85.1328125 C-34.53531067 84.37369064 -34.19171509 83.61456879 -33.83770752 82.83244324 C-13.09133304 37.11769449 -13.09133304 37.11769449 0.25 20.0625 C0.88679688 19.21300781 1.52359375 18.36351562 2.1796875 17.48828125 C8.20127301 10.43280087 17.11265861 5.50924572 26.25 4.0625 C52.52094682 2.60766588 79.39333496 6.71064586 105.31347656 10.50341797 C109.66071236 11.12083114 114.01245839 11.69235525 118.3671875 12.25390625 C132.64714746 14.1019453 146.90262183 15.98857385 161.0625 18.625 C162.09270264 18.81054443 163.12290527 18.99608887 164.18432617 19.18725586 C171.29815601 20.5783755 177.87702326 22.18994922 182.625 27.9375 C185.67585733 33.80453333 186.69143998 39.32107268 187.3125 45.8125 C187.39048828 46.54082031 187.46847656 47.26914062 187.54882812 48.01953125 C189.29498006 65.30787853 189.40803697 82.58293152 189.38037109 99.94433594 C189.37505687 103.89522219 189.38032096 107.8459924 189.38671875 111.796875 C189.39071575 128.90964707 188.98948506 145.96639947 188.25 163.0625 C189.9 163.3925 191.55 163.7225 193.25 164.0625 C193.73803828 183.12310606 193.73803828 183.12310606 189.75 189.4375 C182.90252492 193.8883588 174.16453481 194.75529971 166.25 196.0625 C166.23598145 195.1492395 166.23598145 195.1492395 166.22167969 194.2175293 C165.86478843 175.21018635 165.86478843 175.21018635 158.25 158.0625 C153.05200607 154.29140637 149.64103136 153.25094046 143.25 154.0625 C135.85891242 157.90018009 132.7520963 163.47611631 130.0625 171 C129.80275391 171.69029297 129.54300781 172.38058594 129.27539062 173.09179688 C126.62893141 180.30630456 126.03800333 187.3068702 125.6875 194.9375 C125.64431641 195.81664062 125.60113281 196.69578125 125.55664062 197.6015625 C125.45130661 199.75505797 125.35022351 201.90876064 125.25 204.0625 C124.70194702 204.1766777 124.15389404 204.29085541 123.5892334 204.40849304 C122.80890747 204.57106094 122.02858154 204.73362885 121.22460938 204.90112305 C119.89931213 205.17722664 119.89931213 205.17722664 118.54724121 205.45890808 C117.08526306 205.76348686 117.08526306 205.76348686 115.59375 206.07421875 C111.3125 206.96614583 107.03125 207.85807292 102.75 208.75 C101.70005859 208.96873779 100.65011719 209.18747559 99.56835938 209.4128418 C98.53001953 209.6291626 97.49167969 209.8454834 96.421875 210.06835938 C95.38041321 210.28534485 94.33895142 210.50233032 93.26593018 210.72589111 C91.13342547 211.17013386 89.00089742 211.61426453 86.86834717 212.05828857 C81.62946105 213.14923272 76.39093921 214.2418541 71.15332031 215.33886719 C58.11640274 218.06734701 45.07157106 220.75240445 32.00585938 223.33984375 C29.96544997 223.74553919 27.92575525 224.15484249 25.88671875 224.56738281 C22.87917256 225.17551243 19.8696182 225.77257195 16.859375 226.3671875 C15.4939859 226.64669754 15.4939859 226.64669754 14.10101318 226.93185425 C12.83623138 227.17804001 12.83623138 227.17804001 11.54589844 227.42919922 C10.44202789 227.64973465 10.44202789 227.64973465 9.31585693 227.87472534 C7.05458074 228.0802625 5.40556157 227.73422766 3.25 227.0625 C3.415 226.03125 3.58 225 3.75 223.9375 C5.78814425 207.18927113 4.24871624 189.67140548 -5.6875 175.5625 C-10.20055077 169.99909726 -15.6676509 166.79694351 -22.77734375 165.76953125 C-30.40263047 165.2736866 -36.16392511 168.53607399 -42.26171875 172.83203125 C-54.29022205 183.6142532 -57.84058147 199.71177996 -59.75 215.0625 C-111.92825916 230.54249505 -210.35267071 233.08075066 -260.75 211.0625 C-260.18092247 213.4417284 -259.59538621 215.81484153 -259 218.1875 C-258.84273438 218.85265625 -258.68546875 219.5178125 -258.5234375 220.203125 C-256.82464211 226.86762999 -253.76671482 232.42740147 -247.75 236.0625 C-237.55398122 239.6207822 -226.8592328 239.95483921 -216.1875 240.625 C-214.35035177 240.74812537 -212.51327505 240.87232202 -210.67626953 240.99755859 C-207.03722424 241.24482088 -203.39790686 241.48721779 -199.75830078 241.72607422 C-192.26412233 242.22277995 -184.77699808 242.81202216 -177.29077148 243.41625977 C-174.11174611 243.65953433 -170.93236715 243.86732744 -167.75 244.0625 C-167.04789398 244.10660004 -166.34578796 244.15070007 -165.62240601 244.19613647 C-146.1015213 245.37025026 -126.55955515 245.18063627 -107.01287842 245.13116455 C-102.4597623 245.12077048 -97.90664029 245.11633316 -93.35351562 245.11132812 C-84.48566136 245.10073558 -75.61783508 245.08376302 -66.75 245.0625 C-66.75 245.7225 -66.75 246.3825 -66.75 247.0625 C-76.09272339 249.75234359 -85.29976293 250.70229249 -94.96508789 251.41552734 C-95.92793701 251.48723145 -96.89078613 251.55893555 -97.8828125 251.6328125 C-98.74793457 251.69227051 -99.61305664 251.75172852 -100.50439453 251.81298828 C-102.91657631 252.00162039 -102.91657631 252.00162039 -105.75 253.0625 C-107.2443893 253.14208077 -108.74177724 253.17083648 -110.23828125 253.16796875 C-122.53386616 253.31435757 -134.17247247 254.58315128 -146.1875 257.0625 C-146.85850739 257.20005707 -147.52951477 257.33761414 -148.22085571 257.4793396 C-154.96335269 258.28547785 -154.96335269 258.28547785 -160.75 261.0625 C-164.10527214 261.63975112 -167.47178372 262.09335686 -170.84375 262.5625 C-173.63475283 262.75492705 -173.63475283 262.75492705 -174.75 264.0625 C-177.22734603 264.52138262 -179.69807817 264.92940906 -182.1875 265.3125 C-191.25697565 266.75925067 -200.26444087 268.47693932 -209.27319336 270.26074219 C-230.28336743 274.38044797 -230.28336743 274.38044797 -239.0625 274.1875 C-240.15175781 274.16945313 -241.24101562 274.15140625 -242.36328125 274.1328125 C-243.54470703 274.09800781 -243.54470703 274.09800781 -244.75 274.0625 C-243.81154878 271.75069826 -243.23550602 270.35553354 -241.06445312 269.04516602 C-240.05801758 268.68442993 -240.05801758 268.68442993 -239.03125 268.31640625 C-238.27239502 268.03877441 -237.51354004 267.76114258 -236.73168945 267.47509766 C-235.91273193 267.19456543 -235.09377441 266.9140332 -234.25 266.625 C-232.98579224 266.17713135 -232.98579224 266.17713135 -231.69604492 265.72021484 C-225.87126518 263.69491197 -219.99674045 261.86372211 -214.0625 260.1875 C-213.34578125 259.98455322 -212.6290625 259.78160645 -211.890625 259.57250977 C-207.190176 258.30240012 -202.59251704 257.57338283 -197.75 257.0625 C-197.75 256.4025 -197.75 255.7425 -197.75 255.0625 C-198.33007812 255.03671875 -198.91015625 255.0109375 -199.5078125 254.984375 C-205.08204835 254.579645 -208.45240008 253.6989307 -212.75 250.0625 C-212.75 249.4025 -212.75 248.7425 -212.75 248.0625 C-213.46800781 248.09730469 -214.18601562 248.13210938 -214.92578125 248.16796875 C-228.9853836 248.53565449 -245.51357936 247.76256552 -256.72265625 238.41796875 C-265.00725575 230.06301171 -267.86148657 217.97325498 -267.98828125 206.55078125 C-267.9980751 205.82916809 -268.00786896 205.10755493 -268.01795959 204.36407471 C-268.29586964 178.59159322 -267.0661157 158.26429626 -248.33486938 138.67791748 C-245.74484318 136.03796895 -243.06182868 133.50117367 -240.3671875 130.96875 C-225.49281061 116.93991789 -214.35783688 103.13485678 -204.51660156 85.22265625 C-201.90977017 80.55946863 -199.06970121 76.05897148 -196.1875 71.5625 C-195.70249023 70.79993896 -195.21748047 70.03737793 -194.71777344 69.25170898 C-193.40082475 67.18494622 -192.07746454 65.12252057 -190.75 63.0625 C-190.37584961 62.48129395 -190.00169922 61.90008789 -189.61621094 61.30126953 C-184.65680256 53.6340333 -179.34145149 46.28038058 -173.75 39.0625 C-173.05261719 38.15757812 -172.35523438 37.25265625 -171.63671875 36.3203125 C-158.00049298 19.11922332 -146.92606058 9.62952504 -124.73086548 6.80560303 C-119.93370102 6.2768875 -115.12489681 5.91584322 -110.3125 5.5625 C-108.74289986 5.44117725 -107.17332041 5.31958656 -105.60375977 5.19775391 C-84.91919902 3.62065448 -64.20559305 2.38753455 -43.4944458 1.21835327 C-41.70408939 1.11668141 -39.91383941 1.01311233 -38.12371826 0.90737915 C-25.40410523 0.15881793 -12.74007957 -0.06392958 0 0 Z " fill="#F9FAFD" transform="translate(619.75,442.9375)"/>
<path d="M0 0 C1.11397156 0.00432037 2.22794312 0.00864075 3.37567139 0.01309204 C19.63765646 0.08694262 35.57806778 0.5199218 51.625 3.375 C52.64480957 3.54660645 53.66461914 3.71821289 54.71533203 3.89501953 C126.42573648 16.15910979 198.33578621 56.96970214 242.625 115.375 C243.81222656 116.87160156 243.81222656 116.87160156 245.0234375 118.3984375 C264.90685083 143.53661544 281.57029087 172.81027932 291.87695312 203.18505859 C292.74346367 205.72180781 293.64657967 208.24458016 294.546875 210.76953125 C304.47672685 239.06161624 311.05096161 269.30375953 311.625 299.375 C311.65078125 300.42896973 311.6765625 301.48293945 311.703125 302.56884766 C312.55431559 341.86725312 306.78535795 379.02987281 294.625 416.375 C294.30692383 417.3645166 293.98884766 418.3540332 293.66113281 419.37353516 C285.82910253 443.39881725 274.30404708 466.48639683 260.23168945 487.45068359 C257.15994675 492.1339846 255.75124961 495.24694856 256.08984375 500.93359375 C257.71680211 508.35584904 264.37685595 513.12398003 269.84375 517.8828125 C272.93114984 520.64933089 275.84238508 523.54746213 278.75 526.5 C282.59839462 530.3982081 286.52713723 534.11781243 290.69921875 537.66796875 C293.74436253 540.36721385 296.55342701 543.29561063 299.41015625 546.19140625 C301.40159461 548.15474671 303.43802578 549.99579669 305.5625 551.8125 C309.65278779 555.31729928 313.3920907 559.12698614 317.17578125 562.95703125 C319.9354604 565.68149918 322.81680657 568.21047376 325.76171875 570.73046875 C328.24130858 572.9189537 330.5312118 575.27044013 332.84765625 577.62890625 C334.69093574 579.43977643 336.60322799 581.12821354 338.5625 582.8125 C342.09134763 585.85179651 345.35505027 589.08516847 348.62109375 592.40234375 C351.20746151 594.94837829 353.9403528 597.29521557 356.69140625 599.66015625 C359.19069138 601.87669397 361.50781884 604.24662281 363.84765625 606.62890625 C365.69093574 608.43977643 367.60322799 610.12821354 369.5625 611.8125 C372.37076347 614.23117779 375.02470593 616.73399683 377.625 619.375 C380.20509215 621.99540609 382.83603607 624.47823412 385.625 626.875 C389.05282597 629.82078795 392.23634817 632.93675347 395.375 636.1875 C397.32698734 638.08526547 399.32016319 639.87231452 401.375 641.65625 C405.56011598 645.29211786 409.60247552 649.06095567 413.625 652.875 C415.10780966 654.27762211 416.59088966 655.67995847 418.07421875 657.08203125 C418.82364746 657.79053223 419.57307617 658.4990332 420.34521484 659.22900391 C422.60265245 661.35396391 424.87127443 663.46619975 427.14453125 665.57421875 C427.86576172 666.24453125 428.58699219 666.91484375 429.33007812 667.60546875 C430.70001967 668.87764802 432.07229232 670.14732325 433.44726562 671.4140625 C439.33974778 676.89742931 444.90622286 682.43051877 445.9140625 690.765625 C446.18367689 698.75601515 444.41094067 704.47462038 439.375 710.6875 C433.88776405 716.47011511 429.48926617 717.54230208 421.6875 717.875 C412.31471222 717.64663759 407.58546329 713.79842793 401.3203125 707.23828125 C399.07675183 704.77243231 396.88344131 702.26741271 394.70703125 699.7421875 C392.06454376 696.73778334 389.34683425 693.80742995 386.625 690.875 C383.45265474 687.45542759 380.29239087 684.03658634 377.25 680.5 C373.26062636 675.88484226 369.0607815 671.46610776 364.89038086 667.01538086 C360.06641795 661.86223376 355.32395672 656.64245054 350.625 651.375 C345.355812 645.49599639 340.05266756 639.64998462 334.71142578 633.83642578 C331.83106171 630.69868887 328.96983753 627.54496182 326.125 624.375 C319.49605302 616.99249599 312.77338378 609.69612041 306.03686523 602.41186523 C305.52969971 601.86344971 305.02253418 601.31503418 304.5 600.75 C303.99218994 600.20093994 303.48437988 599.65187988 302.96118164 599.08618164 C300.03136807 595.91352129 297.12840106 592.71954488 294.25 589.5 C290.43175646 585.23745175 286.53642511 581.051747 282.625 576.875 C277.99434545 571.93023639 273.41288977 566.94992498 268.8984375 561.8984375 C265.65918294 558.30297626 262.36792331 554.75637726 259.07910156 551.20629883 C255.93776465 547.810898 252.83160083 544.38744033 249.75 540.9375 C242.31757592 532.16638468 242.31757592 532.16638468 231.7421875 529.0078125 C227.09212124 529.0788223 225.03382556 530.96617444 221.75 534.25 C221.24025635 534.74741699 220.7305127 535.24483398 220.20532227 535.75732422 C218.65715218 537.27682002 217.13842566 538.82096901 215.625 540.375 C208.9159119 547.17461552 202.14389788 553.4716491 194.625 559.375 C193.16320312 560.54482422 193.16320312 560.54482422 191.671875 561.73828125 C153.11703665 592.10748181 108.73929714 611.43315238 61.02099609 621.828125 C58.93951283 622.3032139 56.87560392 622.85406539 54.81640625 623.41796875 C24.72324503 630.99120699 -11.88685094 629.45997106 -42.375 625.375 C-43.51146973 625.23819824 -43.51146973 625.23819824 -44.67089844 625.09863281 C-59.56925017 623.28795893 -73.92482658 619.32807974 -88.375 615.375 C-89.86973245 614.97373768 -91.36451468 614.57266069 -92.859375 614.171875 C-99.58169469 612.32250321 -105.92943292 610.01780878 -112.375 607.375 C-113.16704834 607.05378174 -113.95909668 606.73256348 -114.77514648 606.40161133 C-153.12582013 590.74495773 -186.52395139 568.74483396 -216.8125 540.625 C-217.46307373 540.02308838 -218.11364746 539.42117676 -218.78393555 538.80102539 C-222.71210521 535.10912143 -226.32627738 531.2521601 -229.83618164 527.16113281 C-231.62142366 525.08897184 -233.4967463 523.1128185 -235.375 521.125 C-251.24764714 503.491735 -264.02063306 483.26246525 -275.25244141 462.44824219 C-276.30584165 460.50272787 -277.37431017 458.56650498 -278.44921875 456.6328125 C-281.19066737 451.65567517 -283.80317787 446.80202957 -285.6484375 441.421875 C-286.53653689 438.91991759 -287.57998105 436.5031249 -288.625 434.0625 C-293.37680914 422.70135632 -297.98481942 411.19753722 -300.703125 399.1640625 C-301.42386998 396.17213275 -302.35052904 393.29791177 -303.3125 390.375 C-310.89843826 366.13487543 -312.56243738 340.6347635 -312.56030273 315.39892578 C-312.56249098 312.51189452 -312.58072269 309.62524547 -312.59960938 306.73828125 C-312.63287954 295.76089103 -312.03555268 285.22961322 -310.375 274.375 C-310.15788492 272.70098042 -309.94379379 271.02656229 -309.734375 269.3515625 C-302.94926061 219.48181354 -284.02430172 171.09898179 -254.375 130.375 C-253.64023437 129.34632813 -252.90546875 128.31765625 -252.1484375 127.2578125 C-246.45679012 119.45508136 -240.16996309 112.2142899 -233.78466797 104.97998047 C-232.1051517 103.06776364 -230.46112846 101.12635156 -228.8125 99.1875 C-221.62167595 90.99496912 -213.69960996 83.40030605 -205.375 76.375 C-204.46878906 75.57964844 -203.56257813 74.78429687 -202.62890625 73.96484375 C-188.9198346 62.00563278 -174.07487533 51.78656189 -158.40478516 42.57568359 C-156.59459932 41.5049001 -154.80183461 40.40478998 -153.01171875 39.30078125 C-125.53082582 22.75855877 -93.54311579 12.23214541 -62.25 5.75 C-61.32832031 5.55567383 -60.40664063 5.36134766 -59.45703125 5.16113281 C-39.70398564 1.24641415 -20.1032103 -0.14879672 0 0 Z M-96.48071289 33.58984375 C-100.5888904 35.29262747 -104.83958142 36.63706146 -109.05859375 38.03710938 C-113.8805466 39.68947839 -117.98639421 41.78630491 -122.375 44.375 C-123.79715024 44.95577339 -125.23432109 45.50192361 -126.6875 46 C-147.56684773 54.17564821 -167.08972305 68.28986559 -184.375 82.375 C-185.39464844 83.19097656 -186.41429687 84.00695312 -187.46484375 84.84765625 C-195.48431218 91.40717017 -202.84803126 98.63837413 -210.1875 105.9375 C-210.67555115 106.42028412 -211.16360229 106.90306824 -211.66644287 107.40048218 C-218.36472904 114.04281069 -224.52832182 120.96870825 -230.375 128.375 C-231.24437312 129.44695417 -232.11407783 130.51863966 -232.984375 131.58984375 C-249.49650184 152.59158172 -265.66467377 177.43744298 -273.61328125 203.12109375 C-274.47109983 205.65935694 -275.53649435 208.05174296 -276.625 210.5 C-283.85831568 227.55308968 -288.55677397 246.10795832 -291.375 264.375 C-291.62514859 265.90643886 -291.87654152 267.43767478 -292.12890625 268.96875 C-292.39866993 270.62496216 -292.66820079 272.28121226 -292.9375 273.9375 C-293.06447266 274.70457275 -293.19144531 275.47164551 -293.32226562 276.26196289 C-295.08869353 287.28928628 -295.53636647 298.18328897 -295.50537109 309.33447266 C-295.50004182 311.60716524 -295.50533066 313.87965738 -295.51171875 316.15234375 C-295.52008953 330.01735708 -294.73080728 343.66401446 -292.5625 357.375 C-292.29856445 359.06471924 -292.29856445 359.06471924 -292.02929688 360.78857422 C-290.86284005 367.99590756 -289.41064592 374.95321263 -287.36328125 381.96484375 C-286.48736816 384.98726322 -285.73864098 388.01619091 -285.02758789 391.08081055 C-281.91280813 404.35255193 -277.51229835 417.50615055 -271.5859375 429.79296875 C-270.73786784 431.60127212 -269.95634016 433.44158578 -269.2265625 435.30078125 C-258.33470238 462.86048791 -239.69676136 488.14880251 -220.375 510.375 C-219.64667969 511.21675781 -218.91835938 512.05851562 -218.16796875 512.92578125 C-209.24998504 523.03503551 -199.79977661 532.82378364 -189.1809082 541.15380859 C-186.49918042 543.27669725 -183.87456544 545.45554401 -181.25 547.6484375 C-175.72931274 552.16805742 -170.00793866 556.24863451 -164.0625 560.1875 C-163.02561035 560.87473145 -161.9887207 561.56196289 -160.92041016 562.27001953 C-130.23136272 582.33611452 -96.99443475 595.95700308 -61.375 604.375 C-60.69066895 604.53838867 -60.00633789 604.70177734 -59.30126953 604.87011719 C-55.01603407 605.871393 -50.7149811 606.65166982 -46.375 607.375 C-45.29025391 607.57802734 -45.29025391 607.57802734 -44.18359375 607.78515625 C-28.85353747 610.58851086 -13.53356301 610.67049337 2 610.6875 C3.03003143 610.69099457 4.06006287 610.69448914 5.12130737 610.6980896 C21.84629699 610.72951349 38.100678 609.65592126 54.5625 606.5625 C55.48450195 606.39000732 56.40650391 606.21751465 57.35644531 606.03979492 C105.37198091 596.79049517 151.47922063 575.28584195 188.625 543.375 C189.66934607 542.51283467 190.71499597 541.65224705 191.76171875 540.79296875 C205.58953454 529.33414932 218.73000906 516.6813384 229.625 502.375 C230.41777344 501.37597656 231.21054687 500.37695312 232.02734375 499.34765625 C262.86234036 460.34816935 284.01800018 412.7953289 291.1328125 363.54638672 C291.50596628 361.14198808 291.92497059 358.76768199 292.3828125 356.37939453 C294.7042276 343.82304534 295.08795485 331.51951224 295.01611328 318.76855469 C295.0000197 315.37914808 295.01605982 311.99093344 295.03515625 308.6015625 C295.04668759 295.54309537 294.04954041 283.19646368 291.625 270.375 C291.32157605 268.29334654 291.02716971 266.21031153 290.75 264.125 C280.17185582 197.21404036 245.4506265 133.38132145 193.625 89.375 C192.78710938 88.64796875 191.94921875 87.9209375 191.0859375 87.171875 C178.38182428 76.32263231 164.82506321 66.67354669 150.3359375 58.35839844 C147.62809897 56.80200951 144.94184835 55.20884007 142.25 53.625 C140.37606484 52.53982575 138.50114396 51.45635099 136.625 50.375 C135.81289063 49.900625 135.00078125 49.42625 134.1640625 48.9375 C130.09743199 46.60578012 126.13831619 44.72914584 121.71484375 43.1875 C119.29237763 42.2456814 117.05168662 41.08150032 114.75 39.875 C110.66207036 37.78102993 106.67905756 36.37179301 102.25610352 35.16748047 C99.75685205 34.41471344 97.43449199 33.50305782 95.03515625 32.48046875 C89.48963429 30.23154852 83.86004945 28.70226885 78.0625 27.25 C77.08603516 26.99863281 76.10957031 26.74726563 75.10351562 26.48828125 C69.29985266 25.00533861 63.47898717 23.6429045 57.625 22.375 C56.48417969 22.1171875 55.34335937 21.859375 54.16796875 21.59375 C37.20086638 17.95935322 20.19516165 17.03768934 2.87890625 17.11425781 C-0.00542067 17.12502023 -2.88912868 17.1142601 -5.7734375 17.1015625 C-35.73771817 17.07906631 -68.83263537 21.5180948 -96.48071289 33.58984375 Z " fill="#F8FAFD" transform="translate(584.375,264.625)"/>
<path d="M0 0 C1.11310547 0.00193359 2.22621094 0.00386719 3.37304688 0.00585938 C5.0968457 0.02422852 5.0968457 0.02422852 6.85546875 0.04296875 C8.56186523 0.04393555 8.56186523 0.04393555 10.30273438 0.04492188 C27.94906468 0.13656468 27.94906468 0.13656468 31.04296875 3.23046875 C31.32144165 5.61271667 31.32144165 5.61271667 31.36181641 8.66479492 C31.38168106 9.8194223 31.40154572 10.97404968 31.42201233 12.16366577 C31.43356857 13.43739044 31.44512482 14.71111511 31.45703125 16.0234375 C31.47589341 17.37465457 31.4955195 18.72586117 31.51585388 20.07705688 C31.56831317 23.7560296 31.60760314 27.43503869 31.64406204 31.11420059 C31.66790412 33.41174112 31.69554269 35.70920296 31.72457886 38.00668335 C32.16764325 73.08007006 32.14875713 108.15502261 32.04296875 143.23046875 C33.06132813 143.08424072 34.0796875 142.9380127 35.12890625 142.78735352 C38.93820969 142.24056477 42.74764928 141.69472969 46.55712891 141.14916992 C48.20006936 140.91374956 49.84297369 140.67807697 51.48583984 140.44213867 C53.85895286 140.1013729 56.23219801 139.76154032 58.60546875 139.421875 C59.69190674 139.26556358 59.69190674 139.26556358 60.80029297 139.10609436 C74.88741184 137.0934317 74.88741184 137.0934317 82.04296875 137.16796875 C83.17734375 137.17699219 84.31171875 137.18601562 85.48046875 137.1953125 C86.32609375 137.20691406 87.17171875 137.21851563 88.04296875 137.23046875 C85.58340641 139.69003109 84.02908004 139.89226322 80.65625 140.67578125 C79.50874268 140.94430908 78.36123535 141.21283691 77.17895508 141.48950195 C75.91720459 141.775271 74.6554541 142.06104004 73.35546875 142.35546875 C72.03473808 142.65904927 70.71401893 142.96267996 69.39331055 143.26635742 C7.59329807 157.36301815 7.59329807 157.36301815 0.04296875 156.23046875 C-1.89453125 154.54296875 -1.89453125 154.54296875 -2.95703125 152.23046875 C-2.5234375 149.5859375 -2.5234375 149.5859375 -1.95703125 147.23046875 C1.56270874 146.72256716 5.08390917 146.22558352 8.60546875 145.73046875 C9.59611328 145.58738281 10.58675781 145.44429687 11.60742188 145.296875 C12.57744141 145.16152344 13.54746094 145.02617188 14.546875 144.88671875 C15.43189697 144.76103516 16.31691895 144.63535156 17.22875977 144.50585938 C20.51274499 144.18449776 23.74541234 144.18762016 27.04296875 144.23046875 C27.01267578 143.12461426 26.98238281 142.01875977 26.95117188 140.87939453 C26.37548294 119.65971763 25.84891774 98.45964902 26.04296875 77.23046875 C22.27162314 77.53697702 18.50100748 77.85170108 14.73046875 78.16796875 C13.65861328 78.25498047 12.58675781 78.34199219 11.48242188 78.43164062 C10.45439453 78.51865234 9.42636719 78.60566406 8.3671875 78.6953125 C6.94539185 78.81314087 6.94539185 78.81314087 5.49487305 78.93334961 C2.91026618 79.16369979 2.91026618 79.16369979 0.04296875 80.23046875 C-1.35059217 80.39755756 -2.74945488 80.52263054 -4.1496582 80.61938477 C-4.99095779 80.67937149 -5.83225739 80.73935822 -6.6990509 80.80116272 C-7.60531723 80.86162277 -8.51158356 80.92208282 -9.4453125 80.984375 C-10.38126755 81.04954819 -11.3172226 81.11472137 -12.28153992 81.18186951 C-14.26267884 81.31899585 -16.24395127 81.45420491 -18.2253418 81.58764648 C-21.24756653 81.79148729 -24.26929771 82.00168336 -27.29101562 82.21289062 C-29.21742194 82.34543017 -31.14385349 82.47760353 -33.0703125 82.609375 C-33.97050613 82.67185928 -34.87069977 82.73434357 -35.798172 82.79872131 C-44.82471295 83.40173731 -44.82471295 83.40173731 -48.95703125 83.23046875 C-49.28703125 82.90046875 -49.61703125 82.57046875 -49.95703125 82.23046875 C-49.61667569 74.54476519 -47.37847165 68.06317445 -44.64453125 60.91796875 C-44.20520264 59.75531494 -43.76587402 58.59266113 -43.31323242 57.39477539 C-39.94687374 48.59158545 -36.41955708 39.85715307 -32.76953125 31.16796875 C-32.29539795 30.02223389 -31.82126465 28.87649902 -31.33276367 27.69604492 C-27.01311809 17.60795161 -21.88716366 7.72452332 -11.95703125 2.23046875 C-7.82788648 0.64686242 -4.41470751 -0.01812949 0 0 Z " fill="#044ED6" transform="translate(639.95703125,481.76953125)"/>
<path d="M0 0 C0.87011719 0.69609375 0.87011719 0.69609375 1.7578125 1.40625 C2.35335938 1.8703125 2.94890625 2.334375 3.5625 2.8125 C3.99820312 3.1734375 4.43390625 3.534375 4.8828125 3.90625 C2.16416123 5.71868418 0.7387515 6.33491718 -2.328125 7.0546875 C-3.1540918 7.25328369 -3.98005859 7.45187988 -4.83105469 7.65649414 C-5.70922852 7.86266357 -6.58740234 8.06883301 -7.4921875 8.28125 C-13.33925245 9.69403013 -19.13252181 11.14145728 -24.8671875 12.96875 C-30.11623538 14.63829449 -35.40741587 16.02785548 -40.75488281 17.33618164 C-46.05848734 18.63439428 -51.33961126 20.00616353 -56.6171875 21.40625 C-67.25396338 24.21530611 -77.89743686 26.95227273 -88.625 29.39453125 C-103.75207351 32.84825669 -118.73953548 36.59225918 -133.67553711 40.79760742 C-156.38268898 47.16546314 -156.38268898 47.16546314 -165.1171875 46.90625 C-165.1171875 47.56625 -165.1171875 48.22625 -165.1171875 48.90625 C-167.23338592 49.32948968 -169.34959012 49.75270048 -171.46582031 50.17578125 C-173.29209222 50.54116706 -175.11826237 50.90706174 -176.94433594 51.2734375 C-181.03495521 52.09356867 -185.125578 52.91191283 -189.22265625 53.69921875 C-195.30024067 54.8782571 -201.30836839 56.17683937 -207.3046875 57.71875 C-225.00974395 62.23857742 -242.89876339 65.84904117 -260.9296875 68.78125 C-261.92477829 68.94522781 -261.92477829 68.94522781 -262.93997192 69.11251831 C-264.83777055 69.42306288 -266.7372265 69.72342621 -268.63671875 70.0234375 C-269.72057861 70.19472168 -270.80443848 70.36600586 -271.92114258 70.54248047 C-275.34506812 70.93218707 -278.67409124 70.96763201 -282.1171875 70.90625 C-282.1171875 69.91625 -282.1171875 68.92625 -282.1171875 67.90625 C-269.54496272 61.77638897 -256.15121699 58.03947171 -242.79638672 54.015625 C-239.31858167 52.96697562 -235.84421296 51.90780196 -232.37109375 50.84375 C-209.91403063 43.97020558 -209.91403063 43.97020558 -204.8671875 43.09375 C-201.355519 42.43362125 -197.93410193 41.59730906 -194.49609375 40.6328125 C-193.66432617 40.40182861 -192.83255859 40.17084473 -191.97558594 39.93286133 C-190.30761209 39.4650033 -188.642699 38.98605944 -186.98144531 38.49487305 C-180.1152459 36.57936427 -174.93164902 37.20350521 -168.1796875 39.46875 C-158.62825943 42.14684378 -147.02177163 42.67656293 -138.1171875 37.90625 C-133.32625136 35.04270196 -130.29623487 32.45928225 -127.79931641 27.43554688 C-124.59956711 22.55011897 -121.18530513 21.45055717 -115.59685898 20.22891903 C-113.51127588 19.81512448 -111.42079744 19.43865097 -109.328125 19.0625 C-107.8402832 18.76652396 -106.35310858 18.46717673 -104.86657715 18.16468811 C-100.9007292 17.36698481 -96.92753707 16.61464182 -92.9512558 15.87096024 C-88.84781709 15.09549988 -84.75268803 14.27852775 -80.65673828 13.46459961 C-74.15628697 12.17706008 -67.65203923 10.91101643 -61.14453125 9.65966797 C-53.33905324 8.15620977 -45.55268538 6.57584564 -37.7734375 4.94140625 C-36.73587311 4.72402802 -35.69830872 4.50664978 -34.62930298 4.28268433 C-30.84112749 3.48826478 -27.05329322 2.6922357 -23.26580811 1.89453125 C-20.7773573 1.37292246 -18.28742274 0.85914394 -15.796875 0.34765625 C-15.09397339 0.1984523 -14.39107178 0.04924835 -13.66687012 -0.10447693 C-4.00613336 -2.06958919 -4.00613336 -2.06958919 0 0 Z " fill="#F0F5FC" transform="translate(739.1171875,667.09375)"/>
<path d="M0 0 C1.32378662 0.00616333 1.32378662 0.00616333 2.67431641 0.01245117 C4.22010376 0.01426392 4.22010376 0.01426392 5.79711914 0.01611328 C6.94510986 0.02908447 8.09310059 0.04205566 9.27587891 0.05541992 C10.48381104 0.06259033 11.69174316 0.06976074 12.9362793 0.07714844 C24.73832245 0.17535936 36.5388746 0.42423704 48.33837891 0.68041992 C49.25165955 0.69988678 50.16494019 0.71935364 51.105896 0.7394104 C61.30354365 0.96215289 71.49557797 1.26877768 81.68603516 1.71557617 C82.5959874 1.75267197 83.50593964 1.78976776 84.44346619 1.82798767 C90.78308076 2.12512177 90.78308076 2.12512177 91.90087891 3.24291992 C91.8441554 9.59595247 90.13679641 15.35892648 87.90087891 21.24291992 C87.56572266 22.14010742 87.23056641 23.03729492 86.88525391 23.96166992 C84.19468732 30.94911151 84.19468732 30.94911151 81.90087891 33.24291992 C79.82666016 33.48583984 79.82666016 33.48583984 77.21337891 33.47338867 C75.72535767 33.47157593 75.72535767 33.47157593 74.20727539 33.46972656 C73.11616455 33.45675537 72.02505371 33.44378418 70.90087891 33.43041992 C69.76400635 33.42324951 68.62713379 33.4160791 67.45581055 33.40869141 C53.50019641 33.28249354 39.54872153 32.87623598 25.60205078 32.37524414 C23.34048364 32.29438864 21.07878416 32.21701795 18.81689453 32.14575195 C16.40646614 32.06806699 13.9977389 31.97305663 11.58837891 31.86791992 C10.37537109 31.81893555 9.16236328 31.76995117 7.91259766 31.71948242 C4.49208168 31.17823346 2.58196716 30.43653759 -0.09912109 28.24291992 C-3.59467737 20.59946765 -4.33967239 10.55912196 -4.09912109 2.24291992 C-2.09912109 0.24291992 -2.09912109 0.24291992 0 0 Z " fill="#044DD5" transform="translate(384.09912109375,619.757080078125)"/>
<path d="M0 0 C-0.35286345 7.79160654 -3.37905203 13.95917696 -6.6875 20.9375 C-7.20505859 22.06607422 -7.72261719 23.19464844 -8.25585938 24.35742188 C-14.00176213 36.65780398 -19.23363976 45.93686963 -32.4375 50.8125 C-40.28601742 53.09717117 -48.26158482 53.10095475 -56.375 53.1875 C-57.16060303 53.20063232 -57.94620605 53.21376465 -58.75561523 53.22729492 C-65.93836697 53.23734722 -65.93836697 53.23734722 -69 51 C-70.60745059 47.78509882 -70.40305242 45.5698929 -70 42 C-58.81245934 20.99133586 -31.09044949 8.65219198 -9.78125 0.81640625 C-6.43472288 -0.16593107 -3.46877691 -0.13875108 0 0 Z " fill="#054DD6" transform="translate(554,591)"/>
<path d="M0 0 C-2.81827823 2.81827823 -6.21818608 3.64549807 -9.9140625 4.9140625 C-10.73541687 5.20078827 -11.55677124 5.48751404 -12.40301514 5.78292847 C-15.14155404 6.73652513 -17.88312742 7.6810351 -20.625 8.625 C-22.5464394 9.29086363 -24.46782521 9.95688191 -26.38916016 10.62304688 C-45.78489037 17.33035588 -65.25503409 23.81686698 -84.73892212 30.26280212 C-89.42189008 31.81221171 -94.10289363 33.36714204 -98.78027344 34.93334961 C-100.19138901 35.40550903 -100.19138901 35.40550903 -101.63101196 35.88720703 C-103.40039112 36.47964912 -105.16944172 37.07307388 -106.93807983 37.66772461 C-114.14512737 40.07980478 -121.40659939 42.26389734 -128.71484375 44.34667969 C-131.28088035 45.08030297 -133.84355248 45.82511178 -136.40625 46.5703125 C-138.27073905 47.10970103 -140.13532123 47.6487677 -142 48.1875 C-142.86044922 48.43765869 -143.72089844 48.68781738 -144.60742188 48.94555664 C-150.03512918 50.5030223 -155.47560185 51.83411312 -161 53 C-161.74548096 53.16274414 -162.49096191 53.32548828 -163.2590332 53.49316406 C-180.96418191 57.3242627 -198.89400375 59.26670044 -217 59 C-217 58.34 -217 57.68 -217 57 C-208.52881428 53.72496276 -199.91452152 51.14061584 -191.1953125 48.63232422 C-187.75207069 47.64055417 -184.31319469 46.63410686 -180.875 45.625 C-180.18535156 45.42326172 -179.49570312 45.22152344 -178.78515625 45.01367188 C-174.72195243 43.81969245 -170.670083 42.59390543 -166.625 41.33984375 C-155.94086199 38.03300162 -145.24357581 34.95639194 -134.40454102 32.19726562 C-128.32030331 30.63807955 -122.31138383 28.92128316 -116.3125 27.0625 C-104.67877996 23.47312098 -92.85399522 20.65893909 -81.03515625 17.75341797 C-74.21454917 16.06033613 -67.43805708 14.20122303 -60.65478516 12.36523438 C-49.04733612 9.23701695 -37.39682965 6.30737213 -25.68383789 3.60195923 C-24.32646711 3.28750488 -22.96983361 2.96984837 -21.61401367 2.64877319 C-14.27528361 0.91642221 -7.55102584 -0.41127592 0 0 Z " fill="#F0F5FC" transform="translate(797,676)"/>
<path d="M0 0 C5.78162762 4.17853996 8.69055024 11.20722938 10 18 C11.15560566 32.33239922 10.82973629 47.63897196 1.5 59.4375 C-1.92084387 62.94386496 -3.5350678 63.81010138 -8.375 64.4375 C-12.82888319 63.89996237 -15.25596436 62.43600985 -18 59 C-19.62887379 56.09473002 -20.86948055 53.12948339 -22 50 C-22.53947266 48.65808594 -22.53947266 48.65808594 -23.08984375 47.2890625 C-24.25845668 43.06600633 -24.34233926 39.17422071 -24.3125 34.8125 C-24.30758545 33.96896973 -24.3026709 33.12543945 -24.29760742 32.25634766 C-24.10363287 21.90109089 -21.89755286 11.07186477 -14.4140625 3.3671875 C-9.64856365 -0.70092128 -6.10187681 -1.98083314 0 0 Z " fill="#F8FAFD" transform="translate(600,628)"/>
<path d="M0 0 C8.82165036 -0.04430104 17.62214672 0.03402167 26.4375 0.375 C27.56744385 0.41826416 28.6973877 0.46152832 29.86157227 0.50610352 C37.63202879 0.83243763 45.34057023 1.42460141 53.07714844 2.203125 C60.00036272 2.85195595 66.91281927 3.18096326 73.859375 3.43359375 C75.30927574 3.48908638 75.30927574 3.48908638 76.78846741 3.54570007 C81.70100244 3.73307829 86.61292472 3.90099509 91.52709961 4.03881836 C93.35533748 4.10575351 95.18354558 4.17350797 97.01171875 4.2421875 C97.85865295 4.25894028 98.70558716 4.27569305 99.57818604 4.29295349 C103.41728783 4.45564603 105.39659549 4.54818687 108.53735352 6.89990234 C110.29015829 9.41661519 110.42836598 10.71777826 110.25 13.75 C110.21390625 14.54921875 110.1778125 15.3484375 110.140625 16.171875 C110.09421875 16.77515625 110.0478125 17.3784375 110 18 C109.34 18.33 108.68 18.66 108 19 C107.01 17.02 106.02 15.04 105 13 C72.35440081 10.95862444 39.69331449 10.01487007 7 9 C7 27.81 7 46.62 7 66 C23.5 66 40 66 57 66 C57 67.32 57 68.64 57 70 C50.95382007 70.43263708 44.90727775 70.85965939 38.86035156 71.28173828 C36.80816241 71.4257459 34.75607571 71.57122221 32.70410156 71.71826172 C11.49280307 73.23630499 11.49280307 73.23630499 1 73 C0.11492359 56.51015343 -0.12646402 40.07366573 -0.0625 23.5625 C-0.05746545 21.25846454 -0.05290607 18.95442798 -0.04882812 16.65039062 C-0.03799918 11.10023596 -0.02142192 5.55012339 0 0 Z " fill="#064DD1" transform="translate(684,484)"/>
<path d="M0 0 C4.99812379 4.56971318 6.70906155 10.70531863 7.2890625 17.2734375 C7.53667335 27.47050245 6.64266482 37.85737861 0 46 C-2 48 -2 48 -4.875 48.375 C-8 48 -8 48 -10.125 46.625 C-17.14211093 36.80104469 -17.40933126 25.52103363 -15.4921875 13.9296875 C-14.03178945 8.44060519 -11.61663093 4.35850394 -8 0 C-4.99733781 -1.5013311 -3.18669322 -0.8922741 0 0 Z " fill="#F2F6FC" transform="translate(771,612)"/>
<path d="M0 0 C0.33 0 0.66 0 1 0 C1 23.43 1 46.86 1 71 C18.325 68.525 18.325 68.525 36 66 C41.25879001 65.34265125 45.79580053 64.88328959 51 64.9375 C52.134375 64.94652344 53.26875 64.95554687 54.4375 64.96484375 C55.7059375 64.98224609 55.7059375 64.98224609 57 65 C54.54043766 67.45956234 52.98611129 67.66179447 49.61328125 68.4453125 C48.46577393 68.71384033 47.3182666 68.98236816 46.13598633 69.2590332 C44.87423584 69.54480225 43.61248535 69.83057129 42.3125 70.125 C40.99176933 70.42858052 39.67105018 70.73221121 38.3503418 71.03588867 C-23.44967068 85.1325494 -23.44967068 85.1325494 -31 84 C-32.9375 82.3125 -32.9375 82.3125 -34 80 C-33.56640625 77.35546875 -33.56640625 77.35546875 -33 75 C-29.48026001 74.49209841 -25.95905958 73.99511477 -22.4375 73.5 C-21.44685547 73.35691406 -20.45621094 73.21382812 -19.43554688 73.06640625 C-18.46552734 72.93105469 -17.49550781 72.79570313 -16.49609375 72.65625 C-15.16856079 72.46772461 -15.16856079 72.46772461 -13.81420898 72.27539062 C-10.53022376 71.95402901 -7.29755641 71.95715141 -4 72 C-4.03029297 70.89414551 -4.06058594 69.78829102 -4.09179688 68.64892578 C-4.66748581 47.42924888 -5.19405101 26.22918027 -5 5 C-4.67 5 -4.34 5 -4 5 C-3.67 12.92 -3.34 20.84 -3 29 C-0.70825923 25.56238884 -0.70475953 24.07928385 -0.5859375 20.01953125 C-0.54726563 18.85615234 -0.50859375 17.69277344 -0.46875 16.49414062 C-0.42234375 14.67172852 -0.42234375 14.67172852 -0.375 12.8125 C-0.33632813 11.58595703 -0.29765625 10.35941406 -0.2578125 9.09570312 C-0.16343897 6.06395344 -0.07785451 3.03221159 0 0 Z " fill="#0F54D6" transform="translate(671,554)"/>
<path d="M0 0 C0.70705078 -0.04576172 1.41410156 -0.09152344 2.14257812 -0.13867188 C4.22265625 -0.18359375 4.22265625 -0.18359375 7.9375 0.4375 C11.74826756 4.67034625 12.53965541 7.83967833 12.25390625 13.32421875 C11.79709238 16.37528423 10.9815222 18.1209415 8.9375 20.4375 C1.36591807 25.48522129 -8.37175929 24.57918729 -17.125 24.5 C-18.08599609 24.49548828 -19.04699219 24.49097656 -20.03710938 24.48632812 C-22.37897422 24.47467706 -24.72070181 24.45832025 -27.0625 24.4375 C-25.94704891 15.61765414 -21.70655584 8.13256792 -14.87109375 2.4609375 C-10.38130017 -0.07972323 -5.03986116 0.13396515 0 0 Z " fill="#F1F6FC" transform="translate(628.0625,533.5625)"/>
<path d="M0 0 C0.99 0.495 0.99 0.495 2 1 C2 3.31 2 5.62 2 8 C2.99 7.67 3.98 7.34 5 7 C5 26.14 5 45.28 5 65 C21.83 65 38.66 65 56 65 C56 66.32 56 67.64 56 69 C49.95382007 69.43263708 43.90727775 69.85965939 37.86035156 70.28173828 C35.80816241 70.4257459 33.75607571 70.57122221 31.70410156 70.71826172 C28.73529116 70.93073257 25.76613842 71.13771821 22.796875 71.34375 C21.89636414 71.40937134 20.99585327 71.47499268 20.0680542 71.54260254 C13.32968043 72.00251031 6.7971121 72 0 72 C0 48.24 0 24.48 0 0 Z " fill="#0A4BD5" transform="translate(685,485)"/>
<path d="M0 0 C0.66 0 1.32 0 2 0 C12.92547343 22.44960293 12.92547343 22.44960293 12 33 C11.34 33.99 10.68 34.98 10 36 C5.61352838 36.59048656 3.49113016 36.28194509 -0.375 34.0625 C-3 32 -3 32 -4 31 C-4.73943537 19.89634751 -4.12955115 10.43449084 0 0 Z " fill="#0950D5" transform="translate(363,602)"/>
<path d="M0 0 C1.3471106 -0.00326294 1.3471106 -0.00326294 2.72143555 -0.0065918 C3.69121338 -0.00183838 4.66099121 0.00291504 5.66015625 0.0078125 C6.6447583 0.01192139 7.62936035 0.01603027 8.64379883 0.02026367 C15.06902513 0.06837914 21.49024519 0.17467769 27.91015625 0.4453125 C29.03055298 0.47890869 29.03055298 0.47890869 30.17358398 0.51318359 C33.04846959 0.66147388 35.23568721 0.82484789 37.69921875 2.3828125 C39.03330297 4.66399467 39.02432802 6.19436172 38.91015625 8.8203125 C38.86955078 10.03267578 38.86955078 10.03267578 38.828125 11.26953125 C38.77591797 12.19185547 38.77591797 12.19185547 38.72265625 13.1328125 C38.06265625 13.4628125 37.40265625 13.7928125 36.72265625 14.1328125 C35.73265625 12.1528125 34.74265625 10.1728125 33.72265625 8.1328125 C15.40765625 7.1428125 15.40765625 7.1428125 -3.27734375 6.1328125 C-3.93734375 4.4828125 -4.59734375 2.8328125 -5.27734375 1.1328125 C-3.71101535 -0.4335159 -2.17470879 0.00305897 0 0 Z " fill="#064CD2" transform="translate(755.27734375,488.8671875)"/>
<path d="M0 0 C2.0245738 1.93254772 3.42105792 3.63158688 5 6 C4.32195312 7.07894531 3.64390625 8.15789063 2.9453125 9.26953125 C-2.19214559 17.51826368 -7.10860838 25.83036709 -11.625 34.4375 C-12.05022949 35.24743408 -12.47545898 36.05736816 -12.91357422 36.8918457 C-14.48381015 39.92098764 -15.91873184 42.75619553 -17 46 C-17.66 46 -18.32 46 -19 46 C-17.6798989 29.16871093 -9.49345374 13.69079093 0 0 Z " fill="#0F4FD5" transform="translate(415,557)"/>
<path d="M0 0 C9.04990093 0 18.02974163 0.06833036 27.0625 0.4375 C28.1870459 0.48189209 29.3115918 0.52628418 30.47021484 0.57202148 C37.99666574 0.88230627 45.49953427 1.28639294 53 2 C53 2.33 53 2.66 53 3 C37.82 3 22.64 3 7 3 C7 3.99 7 4.98 7 6 C10.38636309 6.74515899 13.61943103 7.16770563 17.08203125 7.31640625 C18.01337891 7.35830078 18.94472656 7.40019531 19.90429688 7.44335938 C20.86400391 7.48267578 21.82371094 7.52199219 22.8125 7.5625 C23.79154297 7.60568359 24.77058594 7.64886719 25.77929688 7.69335938 C28.18607027 7.7990226 30.59293983 7.90112327 33 8 C33 8.33 33 8.66 33 9 C24.42 9 15.84 9 7 9 C7 27.81 7 46.62 7 66 C6.67 66 6.34 66 6 66 C6 46.86 6 27.72 6 8 C4.02 8.99 4.02 8.99 2 10 C2.03255208 7.94921875 2.06510417 5.8984375 2.09765625 3.84765625 C2.20561184 1.98267859 2.20561184 1.98267859 1 1 C1 17.17 1 33.34 1 50 C0.67 50 0.34 50 0 50 C0 33.5 0 17 0 0 Z " fill="#598CE5" transform="translate(684,484)"/>
<path d="M0 0 C2.52067061 1.81636559 4.93173738 3.67237326 7 6 C7 6.66 7 7.32 7 8 C5.7315625 7.566875 5.7315625 7.566875 4.4375 7.125 C3.303125 6.75375 2.16875 6.3825 1 6 C-0.0725 5.62875 -1.145 5.2575 -2.25 4.875 C-12.28496285 2.53350867 -21.3854815 4.7951605 -31 8 C-28.67249238 2.7029137 -24.53743404 -0.56862695 -19.5625 -3.375 C-12.0912882 -5.19724678 -6.52033215 -3.81905169 0 0 Z " fill="#175CD9" transform="translate(607,595)"/>
<path d="M0 0 C-2.61326436 2.61326436 -5.03752406 3.19533425 -8.5390625 4.3828125 C-9.50034561 4.71150833 -9.50034561 4.71150833 -10.48104858 5.04684448 C-12.52720196 5.74508322 -14.57601395 6.43512349 -16.625 7.125 C-18.01320376 7.59711872 -19.401227 8.06976859 -20.7890625 8.54296875 C-24.19063563 9.70148193 -27.59464013 10.85265859 -31 12 C-30.67 11.01 -30.34 10.02 -30 9 C-34.29 9 -38.58 9 -43 9 C-38.21377815 5.80918544 -32.57772117 5.10200865 -27.0234375 3.85839844 C-24.90078229 3.38080102 -22.78253153 2.88641589 -20.6640625 2.390625 C-13.70608118 0.79771549 -7.18210109 -0.43188581 0 0 Z " fill="#DCE8F8" transform="translate(797,676)"/>
<path d="M0 0 C2.37507855 -0.02719556 4.74983964 -0.04693247 7.125 -0.0625 C7.79015625 -0.07087891 8.4553125 -0.07925781 9.140625 -0.08789062 C13.20681354 -0.10782292 17.0120092 0.21109839 21 1 C21.495 2.98 21.495 2.98 22 5 C22.66 4.01 23.32 3.02 24 2 C24 4.97 24 7.94 24 11 C23.34 11.33 22.68 11.66 22 12 C21.01 10.02 20.02 8.04 19 6 C0.685 5.01 0.685 5.01 -18 4 C-18 3.67 -18 3.34 -18 3 C-9.585 2.505 -9.585 2.505 -1 2 C-0.67 1.34 -0.34 0.68 0 0 Z " fill="#1C5CD4" transform="translate(770,491)"/>
<path d="M0 0 C-2.47328039 2.47328039 -4.13703541 2.70126939 -7.5234375 3.5078125 C-8.626875 3.77207031 -9.7303125 4.03632812 -10.8671875 4.30859375 C-12.02476562 4.57800781 -13.18234375 4.84742188 -14.375 5.125 C-15.52484375 5.40214844 -16.6746875 5.67929687 -17.859375 5.96484375 C-26.46116841 8 -26.46116841 8 -31 8 C-31.33 7.01 -31.66 6.02 -32 5 C-33.65 4.67 -35.3 4.34 -37 4 C-37 3.67 -37 3.34 -37 3 C-11.0298471 -0.58165209 -11.0298471 -0.58165209 0 0 Z " fill="#1457D8" transform="translate(728,619)"/>
<path d="M0 0 C0 0.66 0 1.32 0 2 C-4.41257786 3.20306535 -8.83060599 4.38474271 -13.25 5.5625 C-15.13138672 6.07586914 -15.13138672 6.07586914 -17.05078125 6.59960938 C-18.85869141 7.07817383 -18.85869141 7.07817383 -20.703125 7.56640625 C-21.81333008 7.86490479 -22.92353516 8.16340332 -24.06738281 8.47094727 C-26.87067935 8.97667018 -28.36434754 8.96734053 -31 8 C-29.87961135 5.13678456 -29.3229945 3.92813671 -27 2 C-18.3083556 -0.50653563 -8.97103896 -0.26823705 0 0 Z " fill="#EBF2FB" transform="translate(809,656)"/>
<path d="M0 0 C0 0.66 0 1.32 0 2 C-2.03959477 2.50838564 -4.08179138 3.00633886 -6.125 3.5 C-7.26195312 3.7784375 -8.39890625 4.056875 -9.5703125 4.34375 C-12.81466698 4.96453765 -15.70814457 5.12006768 -19 5 C-19 4.01 -19 3.02 -19 2 C-35.83 2 -52.66 2 -70 2 C-70 1.67 -70 1.34 -70 1 C-63.40623581 0.85437071 -56.81239917 0.71241277 -50.21850586 0.57275391 C-47.98541565 0.52505404 -45.75234184 0.47657891 -43.51928711 0.42724609 C-29.01015853 0.10735979 -14.51269568 -0.06920419 0 0 Z " fill="#BFD6F4" transform="translate(553,688)"/>
<path d="M0 0 C0.33 0 0.66 0 1 0 C1.07601104 7.47470594 1.1285835 14.94931236 1.16479492 22.42431641 C1.17988936 24.96764857 1.20036688 27.51095467 1.22631836 30.05419922 C1.26267177 33.7080732 1.27971997 37.36160329 1.29296875 41.015625 C1.30845261 42.15429016 1.32393646 43.29295532 1.33988953 44.46612549 C1.34011612 45.52692322 1.34034271 46.58772095 1.34057617 47.68066406 C1.34723801 48.61332092 1.35389984 49.54597778 1.36076355 50.50689697 C0.93705072 53.43501912 -0.05930303 54.81148163 -2 57 C-4.30009773 54.69990227 -3.18537365 49.15209334 -3.1875 46.0625 C-3.19974609 45.12986328 -3.21199219 44.19722656 -3.22460938 43.23632812 C-3.22654297 42.34494141 -3.22847656 41.45355469 -3.23046875 40.53515625 C-3.23663208 39.30357788 -3.23663208 39.30357788 -3.24291992 38.04711914 C-3 36 -3 36 -1 34 C-0.75470419 31.42420615 -0.62658207 28.94770993 -0.5859375 26.3671875 C-0.56657135 25.61535187 -0.5472052 24.86351624 -0.5272522 24.08889771 C-0.46740853 21.68438101 -0.42105274 19.27981656 -0.375 16.875 C-0.33682454 15.24607272 -0.29777307 13.61716572 -0.2578125 11.98828125 C-0.16170334 7.99235194 -0.07769059 3.99632813 0 0 Z " fill="#0244CF" transform="translate(670,527)"/>
<path d="M0 0 C16.5 0 33 0 50 0 C50 1.32 50 2.64 50 4 C46.33335046 4.02932237 42.6667316 4.04690637 39 4.0625 C37.97003906 4.07087891 36.94007813 4.07925781 35.87890625 4.08789062 C30.14974387 4.10613637 24.66515899 3.86475384 19 3 C19 2.67 19 2.34 19 2 C12.73 1.67 6.46 1.34 0 1 C0 0.67 0 0.34 0 0 Z " fill="#3D78DD" transform="translate(691,550)"/>
<path d="M0 0 C1.74965358 -0.05429959 3.49979787 -0.09292823 5.25 -0.125 C6.22453125 -0.14820313 7.1990625 -0.17140625 8.203125 -0.1953125 C11.0196498 0.00137219 12.60949036 0.55431084 15 2 C14.67 2.33 14.34 2.66 14 3 C19.08303686 3.11320856 19.08303686 3.11320856 24 2 C25.73324119 2.08461492 27.46392812 2.23604355 29.1875 2.4375 C30.53908203 2.59025391 30.53908203 2.59025391 31.91796875 2.74609375 C32.94857422 2.87177734 32.94857422 2.87177734 34 3 C34 2.34 34 1.68 34 1 C36.31 1.33 38.62 1.66 41 2 C37.49304678 4.33796882 35.66335123 4.37333906 31.49609375 4.6328125 C30.19736328 4.71660156 28.89863281 4.80039062 27.56054688 4.88671875 C26.88241943 4.92587402 26.20429199 4.9650293 25.50561523 5.00537109 C23.46854337 5.12320431 21.43261483 5.25369651 19.39648438 5.38671875 C12.2557257 5.8301567 5.15460669 6.13381037 -2 6 C-2 4 -2 4 0 2 C0 1.34 0 0.68 0 0 Z " fill="#0E52D0" transform="translate(602,558)"/>
<path d="M0 0 C0.8125 1.6875 0.8125 1.6875 1 4 C-2.21971104 7.80511304 -6.14251283 10.86018486 -10 14 C-9.34 15.32 -8.68 16.64 -8 18 C-9.95346205 19.67268922 -11.91229814 21.33821581 -13.875 23 C-14.43058594 23.47695313 -14.98617188 23.95390625 -15.55859375 24.4453125 C-19.7734375 28 -19.7734375 28 -22 28 C-20.53019382 23.40258301 -17.88674803 20.18993737 -14.75 16.625 C-14.25636963 16.05499268 -13.76273926 15.48498535 -13.25415039 14.89770508 C-12.27927319 13.77213152 -11.30220676 12.64844964 -10.32275391 11.52685547 C-8.66045785 9.60806634 -7.05200291 7.64653703 -5.4375 5.6875 C-4.633125 4.800625 -3.82875 3.91375 -3 3 C-2.34 3 -1.68 3 -1 3 C-0.67 2.01 -0.34 1.02 0 0 Z " fill="#1757D7" transform="translate(506,576)"/>
<path d="M0 0 C4.69167408 0.12038867 9.38322365 0.2447099 14.07470703 0.37231445 C15.6628961 0.41500083 17.25111194 0.45670501 18.83935547 0.49731445 C29.57909633 0.77277962 40.2825513 1.25165176 51 2 C51 2.33 51 2.66 51 3 C38.13 3 25.26 3 12 3 C12 4.32 12 5.64 12 7 C4.08 7 -3.84 7 -12 7 C-12 6.67 -12 6.34 -12 6 C-7.05 5.67 -2.1 5.34 3 5 C3.33 4.01 3.66 3.02 4 2 C2.68 1.34 1.36 0.68 0 0 Z " fill="#3C77DD" transform="translate(739,487)"/>
<path d="M0 0 C0.66 0 1.32 0 2 0 C4 2 4 2 4.1953125 5.9140625 C4.18200376 7.48449351 4.15813602 9.05486221 4.125 10.625 C4.11597656 11.42679688 4.10695313 12.22859375 4.09765625 13.0546875 C4.07406223 15.03658523 4.03819065 17.01832981 4 19 C3.67 19 3.34 19 3 19 C2.67 16.36 2.34 13.72 2 11 C0.02 11.99 0.02 11.99 -2 13 C-2 23.89 -2 34.78 -2 46 C-2.33 46 -2.66 46 -3 46 C-3.04989482 41.19858265 -3.08595085 36.39732031 -3.10986328 31.59570312 C-3.1198449 29.96644457 -3.13343499 28.33720356 -3.15087891 26.70800781 C-3.34312387 8.2751086 -3.34312387 8.2751086 -1 1 C-0.67 0.67 -0.34 0.34 0 0 Z " fill="#BDD5F6" transform="translate(355,611)"/>
<path d="M0 0 C9.69069406 0.05436575 19.23396761 1.13933512 28.84765625 2.265625 C28.84765625 2.595625 28.84765625 2.925625 28.84765625 3.265625 C0.44601691 5.33119877 0.44601691 5.33119877 -4.15234375 2.265625 C-2.15234375 0.265625 -2.15234375 0.265625 0 0 Z " fill="#1B5DCF" transform="translate(700.15234375,551.734375)"/>
<path d="M0 0 C0.66 0 1.32 0 2 0 C2.19838991 7.0318201 2.10843055 13.54026835 0.5 20.3984375 C-0.09218732 23.47966216 -0.2647027 26.49304903 -0.4375 29.625 C-0.78098835 34.99995655 -1.79196247 39.10391677 -4 44 C-4.99626581 40.87378659 -4.9448358 38.89444851 -4.1640625 35.7265625 C-2.62477354 28.68205187 -2.04649018 21.54153862 -1.375 14.375 C-1.24004973 12.97521537 -1.10463629 11.57547532 -0.96875 10.17578125 C-0.64129304 6.78426273 -0.31849344 3.39236999 0 0 Z " fill="#2963DD" transform="translate(895,595)"/>
<path d="M0 0 C0.33 0 0.66 0 1 0 C1 9.9 1 19.8 1 30 C0.34 30.33 -0.32 30.66 -1 31 C-1.72693904 32.97888961 -2.39816251 34.97954558 -3 37 C-3.33 37 -3.66 37 -4 37 C-4.78579793 32.85076942 -5.11854983 28.94706569 -5.09765625 24.7265625 C-5.09443359 23.57285156 -5.09121094 22.41914062 -5.08789062 21.23046875 C-5.07951172 20.04066406 -5.07113281 18.85085938 -5.0625 17.625 C-5.05798828 16.41199219 -5.05347656 15.19898438 -5.04882812 13.94921875 C-5.03708354 10.96609493 -5.0206584 7.98307321 -5 5 C-4.67 5 -4.34 5 -4 5 C-3.67 12.92 -3.34 20.84 -3 29 C-0.70825923 25.56238884 -0.70475953 24.07928385 -0.5859375 20.01953125 C-0.52792969 18.27446289 -0.52792969 18.27446289 -0.46875 16.49414062 C-0.42234375 14.67172852 -0.42234375 14.67172852 -0.375 12.8125 C-0.33632813 11.58595703 -0.29765625 10.35941406 -0.2578125 9.09570312 C-0.16343897 6.06395344 -0.07785451 3.03221159 0 0 Z " fill="#2A6ADA" transform="translate(671,554)"/>
<path d="M0 0 C0.99 0.33 1.98 0.66 3 1 C-10.38685121 17.13287197 -10.38685121 17.13287197 -19 21 C-19.66 20.67 -20.32 20.34 -21 20 C-20.40574219 19.47792969 -19.81148437 18.95585938 -19.19921875 18.41796875 C-12.54757003 12.51113917 -6.23469517 6.34137247 0 0 Z " fill="#1958DC" transform="translate(808,796)"/>
<path d="M0 0 C0.33 0 0.66 0 1 0 C1 9.57 1 19.14 1 29 C0.01 27.68 -0.98 26.36 -2 25 C-2.33 24.67 -2.66 24.34 -3 24 C-3.07325168 21.13732433 -3.09238205 18.299281 -3.0625 15.4375 C-3.05798828 14.63119141 -3.05347656 13.82488281 -3.04882812 12.99414062 C-3.03700518 10.99606244 -3.01906914 8.99802217 -3 7 C-2.34 7.66 -1.68 8.32 -1 9 C-0.67 6.03 -0.34 3.06 0 0 Z " fill="#0243D1" transform="translate(671,596)"/>
<path d="M0 0 C5.65880474 0.14147012 8.43940628 2.70126519 12.4609375 6.30859375 C14 8 14 8 14 10 C12.77410156 9.57074219 12.77410156 9.57074219 11.5234375 9.1328125 C7.59053694 7.86835445 3.63624387 6.85423675 -0.375 5.875 C-1.11105469 5.69324219 -1.84710937 5.51148438 -2.60546875 5.32421875 C-4.40311223 4.88064438 -6.20148254 4.44001734 -8 4 C-8 3.67 -8 3.34 -8 3 C-5.36 2.67 -2.72 2.34 0 2 C0 1.34 0 0.68 0 0 Z " fill="#0D4FCE" transform="translate(600,593)"/>
<path d="M0 0 C0.33 0 0.66 0 1 0 C1.19390729 2.31197155 1.37996367 4.6246029 1.5625 6.9375 C1.66691406 8.22527344 1.77132813 9.51304687 1.87890625 10.83984375 C1.91886719 11.88269531 1.95882813 12.92554688 2 14 C1.67 14.33 1.34 14.66 1 15 C0.89991609 17.11007088 0.86918873 19.22349533 0.8671875 21.3359375 C0.86589844 22.62757813 0.86460937 23.91921875 0.86328125 25.25 C0.86537598 25.92675781 0.8674707 26.60351562 0.86962891 27.30078125 C0.87495974 29.35945064 0.86969299 31.4179001 0.86328125 33.4765625 C0.86521484 35.41789063 0.86521484 35.41789063 0.8671875 37.3984375 C0.86831543 38.59130371 0.86944336 39.78416992 0.87060547 41.01318359 C0.86524455 44.0538523 0.86524455 44.0538523 2 47 C1.91343435 49.39870613 1.76001509 51.79537281 1.5625 54.1875 C1.40974609 56.09595703 1.40974609 56.09595703 1.25390625 58.04296875 C1.17011719 59.01878906 1.08632813 59.99460937 1 61 C0.67 61 0.34 61 0 61 C-0.82088872 50.82397176 -1.15906033 40.72579223 -1.13037109 30.51904297 C-1.12497133 28.23788922 -1.13037816 25.95692941 -1.13671875 23.67578125 C-1.13993923 15.73922131 -0.93985323 7.89134171 0 0 Z " fill="#5283E0" transform="translate(290,548)"/>
<path d="M0 0 C15.18 0 30.36 0 46 0 C46 0.33 46 0.66 46 1 C44.82381104 1.02505615 43.64762207 1.0501123 42.43579102 1.07592773 C38.08785378 1.16982806 33.74008284 1.27009048 29.39233398 1.37231445 C27.50760782 1.41572933 25.62284064 1.45739943 23.73803711 1.49731445 C21.03486751 1.55485893 18.33190564 1.61859804 15.62890625 1.68359375 C14.78099014 1.70030624 13.93307404 1.71701874 13.0594635 1.73423767 C9.21707924 1.46409195 9.21707924 1.46409195 6 3 C6.66 3.66 7.32 4.32 8 5 C4.37 5 0.74 5 -3 5 C-3 4.67 -3 4.34 -3 4 C-1.35 4 0.3 4 2 4 C1.34 2.68 0.68 1.36 0 0 Z " fill="#0046D1" transform="translate(691,551)"/>
<path d="M0 0 C0.66 0 1.32 0 2 0 C2.10770323 7.07251199 2.14654253 14.00609057 1 21 C0.34 21.33 -0.32 21.66 -1 22 C-2.15243755 18.54268736 -2.16824837 15.76740787 -2.1875 12.125 C-2.20167969 10.91070313 -2.21585938 9.69640625 -2.23046875 8.4453125 C-2.01047255 5.15655579 -1.41715618 2.94634052 0 0 Z " fill="#0350DC" transform="translate(670,584)"/>
<path d="M0 0 C0.98467255 0.00141495 1.96934509 0.0028299 2.9838562 0.00428772 C6.0908325 0.0098301 9.19773343 0.02237142 12.3046875 0.03515625 C14.42708228 0.04017871 16.54947821 0.0447403 18.671875 0.04882812 C23.84117433 0.05978058 29.01041819 0.07700459 34.1796875 0.09765625 C34.1796875 0.42765625 34.1796875 0.75765625 34.1796875 1.09765625 C33.00873535 1.1227124 31.8377832 1.14776855 30.63134766 1.17358398 C26.29643372 1.26759328 21.96168246 1.36782966 17.62695312 1.4699707 C15.74906208 1.51334414 13.87113098 1.55501743 11.99316406 1.5949707 C9.2974031 1.65261501 6.60184423 1.71632606 3.90625 1.78125 C3.06349518 1.79796249 2.22074036 1.81467499 1.35244751 1.83189392 C-2.8689786 1.83001769 -2.8689786 1.83001769 -6.8203125 3.09765625 C-9.19814355 3.00927164 -11.57376396 2.85419204 -13.9453125 2.66015625 C-15.22664062 2.55832031 -16.50796875 2.45648438 -17.828125 2.3515625 C-19.30925781 2.22587891 -19.30925781 2.22587891 -20.8203125 2.09765625 C-20.8203125 1.76765625 -20.8203125 1.43765625 -20.8203125 1.09765625 C-13.85426419 0.26764774 -7.01183796 -0.03880113 0 0 Z " fill="#5084E1" transform="translate(572.8203125,281.90234375)"/>
<path d="M0 0 C-1.08203125 2.48046875 -1.08203125 2.48046875 -3 5 C-6.13671875 5.48828125 -6.13671875 5.48828125 -9.6875 5.3125 C-10.86699219 5.26738281 -12.04648437 5.22226562 -13.26171875 5.17578125 C-14.16535156 5.11777344 -15.06898438 5.05976562 -16 5 C-16 4.34 -16 3.68 -16 3 C-14.27709395 2.29695778 -12.54632534 1.61316509 -10.8125 0.9375 C-9.84957031 0.55464844 -8.88664063 0.17179688 -7.89453125 -0.22265625 C-4.79065325 -1.05622133 -3.05080883 -0.88679818 0 0 Z " fill="#D0E1F8" transform="translate(596,730)"/>
<path d="M0 0 C-0.33 0.33 -0.66 0.66 -1 1 C-0.505 1.474375 -0.01 1.94875 0.5 2.4375 C2 4 2 4 2 5 C-2.62 5.33 -7.24 5.66 -12 6 C-12 5.01 -12 4.02 -12 3 C-10.5682384 2.30062798 -9.12932968 1.61587282 -7.6875 0.9375 C-6.48673828 0.36322266 -6.48673828 0.36322266 -5.26171875 -0.22265625 C-3 -1 -3 -1 0 0 Z " fill="#C8DCF7" transform="translate(469,732)"/>
<path d="M0 0 C0.99 0.33 1.98 0.66 3 1 C4.7812961 4.64741582 5.15369786 6.4071654 4.125 10.375 C3.75375 11.24125 3.3825 12.1075 3 13 C2.01 12.67 1.02 12.34 0 12 C0 11.01 0 10.02 0 9 C-0.66 9 -1.32 9 -2 9 C-1.34 6.03 -0.68 3.06 0 0 Z " fill="#E2EBFA" transform="translate(357,602)"/>
<path d="M0 0 C-2.16099373 2.16099373 -3.5210418 2.71563716 -6.375 3.6875 C-7.53128906 4.09548828 -7.53128906 4.09548828 -8.7109375 4.51171875 C-11.26027969 5.05552041 -12.5351574 4.73068457 -15 4 C-16.41534778 3.93543121 -17.83337689 3.91388961 -19.25 3.9375 C-20.4875 3.958125 -21.725 3.97875 -23 4 C-15.84397566 0.10266867 -7.99179101 -0.25779971 0 0 Z " fill="#C4D8F7" transform="translate(797,676)"/>
<path d="M0 0 C-2.76292836 2.76292836 -5.207878 3.17837357 -9 4 C-12.0625 3.6875 -12.0625 3.6875 -15 3 C-17 2.66666667 -19 2.33333333 -21 2 C-21 1.67 -21 1.34 -21 1 C-13.98194143 -0.10087193 -7.09434233 -0.09733092 0 0 Z " fill="#2E68E0" transform="translate(728,619)"/>
<path d="M0 0 C0.66 0.33 1.32 0.66 2 1 C1.34 1.66 0.68 2.32 0 3 C0.33 3.66 0.66 4.32 1 5 C-6.71477583 7.64122886 -12.94085318 8.29382821 -21 7 C-21 6.67 -21 6.34 -21 6 C-20.07058594 5.90203125 -19.14117188 5.8040625 -18.18359375 5.703125 C-11.10093856 4.84641175 -5.95126147 3.92242233 0 0 Z " fill="#C6DCF7" transform="translate(604,703)"/>
<path d="M0 0 C-2.29326361 2.29326361 -3.86660021 2.7940077 -6.9375 3.75 C-8.25041016 4.17539062 -8.25041016 4.17539062 -9.58984375 4.609375 C-12 5 -12 5 -15 3 C-13.63969519 1.04456184 -12.47999734 0.11923501 -10.16015625 -0.45703125 C-6.5804283 -0.95699325 -3.45882781 -1.29706043 0 0 Z " fill="#F6F9FD" transform="translate(786,680)"/>
<path d="M0 0 C-0.66 0.66 -1.32 1.32 -2 2 C-0.02 2.66 1.96 3.32 4 4 C4 4.33 4 4.66 4 5 C-0.29 5 -4.58 5 -9 5 C-7 1 -7 1 -4.5 -0.3125 C-2 -1 -2 -1 0 0 Z " fill="#BED4F5" transform="translate(384,712)"/>
<path d="M0 0 C-3.06848659 2.04565773 -5.32993651 2.78134287 -8.875 3.6875 C-9.90367187 3.95949219 -10.93234375 4.23148438 -11.9921875 4.51171875 C-15.0354359 5.00575258 -17.05155721 4.81054977 -20 4 C-20 3.67 -20 3.34 -20 3 C-13.12418702 0.8408662 -7.21471629 -0.35482211 0 0 Z " fill="#1D5CD8" transform="translate(703,684)"/>
<path d="M0 0 C2.31 0.33 4.62 0.66 7 1 C3.76375324 3.15749784 2.65605934 3.28360488 -1.10546875 3.4140625 C-2.57983398 3.47207031 -2.57983398 3.47207031 -4.08398438 3.53125 C-5.10814453 3.5621875 -6.13230469 3.593125 -7.1875 3.625 C-8.74114258 3.68300781 -8.74114258 3.68300781 -10.32617188 3.7421875 C-12.88393622 3.83648296 -15.44169287 3.92208202 -18 4 C-18 3.67 -18 3.34 -18 3 C-17.236875 2.855625 -16.47375 2.71125 -15.6875 2.5625 C-12.91827092 2.0367406 -12.91827092 2.0367406 -10 1 C-8.26675881 1.08461492 -6.53607188 1.23604355 -4.8125 1.4375 C-3.46091797 1.59025391 -3.46091797 1.59025391 -2.08203125 1.74609375 C-1.39496094 1.82988281 -0.70789063 1.91367187 0 2 C0 1.34 0 0.68 0 0 Z " fill="#356DD7" transform="translate(636,559)"/>
<path d="M0 0 C0.33 0.66 0.66 1.32 1 2 C2.32 1.67 3.64 1.34 5 1 C2.525 6.94 2.525 6.94 0 13 C-0.66 13 -1.32 13 -2 13 C-1.48041715 8.62065881 -0.94324258 4.31196609 0 0 Z " fill="#1D57DA" transform="translate(398,590)"/>
<path d="M0 0 C2.475 0.495 2.475 0.495 5 1 C4.44687265 5.02992782 3.8441938 9.02022924 3 13 C1.32889958 10.03821227 0.67317248 7.62928808 0.375 4.25 C0.30023438 3.45078125 0.22546875 2.6515625 0.1484375 1.828125 C0.09945313 1.22484375 0.05046875 0.6215625 0 0 Z " fill="#1055DA" transform="translate(359,654)"/>
<path d="M0 0 C1.15242187 0.00902344 2.30484375 0.01804687 3.4921875 0.02734375 C4.36101563 0.03894531 5.22984375 0.05054688 6.125 0.0625 C6.125 0.7225 6.125 1.3825 6.125 2.0625 C3.155 2.7225 0.185 3.3825 -2.875 4.0625 C-2.545 3.4025 -2.215 2.7425 -1.875 2.0625 C-5.505 2.0625 -9.135 2.0625 -12.875 2.0625 C-12.875 1.7325 -12.875 1.4025 -12.875 1.0625 C-8.52167264 0.22226812 -4.43057481 -0.04520995 0 0 Z " fill="#C0D6F6" transform="translate(802.875,655.9375)"/>
<path d="M0 0 C9.13338455 -0.28994872 17.96301675 0.8258212 27 2 C27 2.33 27 2.66 27 3 C20.73 3 14.46 3 8 3 C8 2.34 8 1.68 8 1 C5.36 1 2.72 1 0 1 C0 0.67 0 0.34 0 0 Z " fill="#497FDE" transform="translate(607,283)"/>
<path d="M0 0 C4.13621084 3.3810038 7.81316569 6.66590534 11 11 C8 11 8 11 5.73828125 9.03125 C4.93777344 8.1959375 4.13726563 7.360625 3.3125 6.5 C2.50425781 5.6646875 1.69601562 4.829375 0.86328125 3.96875 C0.24839844 3.3190625 -0.36648438 2.669375 -1 2 C-0.67 1.34 -0.34 0.68 0 0 Z " fill="#1856D6" transform="translate(972,891)"/>
<path d="M0 0 C1.98 0 3.96 0 6 0 C5.67 1.65 5.34 3.3 5 5 C2.69 5 0.38 5 -2 5 C-1.34 3.35 -0.68 1.7 0 0 Z " fill="#084BD0" transform="translate(691,623)"/>
<path d="M0 0 C4.16138263 -0.08159574 7.9472484 0.01751476 12 1 C12 1.66 12 2.32 12 3 C12.66 3.33 13.32 3.66 14 4 C11.36 4.33 8.72 4.66 6 5 C5.67 4.01 5.34 3.02 5 2 C3.35 1.67 1.7 1.34 0 1 C0 0.67 0 0.34 0 0 Z " fill="#2363D1" transform="translate(691,622)"/>
<path d="M0 0 C1.32 0 2.64 0 4 0 C4.33 1.98 4.66 3.96 5 6 C3.35 6.33 1.7 6.66 0 7 C-1.33332095 4.3333581 -0.67102033 2.83319697 0 0 Z " fill="#0947CB" transform="translate(410,565)"/>
<path d="M0 0 C0 0.66 0 1.32 0 2 C-5.24118425 3.74706142 -10.68833136 3.32791716 -16 2 C-16 1.67 -16 1.34 -16 1 C-14.27111445 0.83044205 -12.54187557 0.66448486 -10.8125 0.5 C-9.84957031 0.4071875 -8.88664063 0.314375 -7.89453125 0.21875 C-5.24812333 0.01875156 -2.65239135 -0.03879183 0 0 Z " fill="#F1F6FD" transform="translate(553,688)"/>
<path d="M0 0 C0.33 0.99 0.66 1.98 1 3 C0.01 3.33 -0.98 3.66 -2 4 C-2 4.99 -2 5.98 -2 7 C-2.66 7 -3.32 7 -4 7 C-4.66 8.98 -5.32 10.96 -6 13 C-6.66 13 -7.32 13 -8 13 C-6.63589551 7.40717158 -3.84616474 4.08806189 0 0 Z " fill="#1F5CDB" transform="translate(758,599)"/>
<path d="M0 0 C0.99 1.32 1.98 2.64 3 4 C-2.75 9 -2.75 9 -5 9 C-3.7508258 5.54074837 -2.32472205 2.85306797 0 0 Z " fill="#2761E0" transform="translate(489,595)"/>
<path d="M0 0 C3.96 0 7.92 0 12 0 C12 0.99 12 1.98 12 3 C8.04 3 4.08 3 0 3 C0 2.01 0 1.02 0 0 Z " fill="#2C6CDC" transform="translate(540,685)"/>
<path d="M0 0 C0 0.33 0 0.66 0 1 C-4.95 1.66 -9.9 2.32 -15 3 C-15 2.01 -15 1.02 -15 0 C-9.96266834 -1.5111995 -5.11828973 -0.64599773 0 0 Z " fill="#2E6DDB" transform="translate(598,597)"/>
<path d="M0 0 C0.33 0.99 0.66 1.98 1 3 C-0.28965176 4.37562854 -1.62689293 5.70766393 -3 7 C-3.66 7 -4.32 7 -5 7 C-5.33 7.99 -5.66 8.98 -6 10 C-8.0625 10.6875 -8.0625 10.6875 -10 11 C-6.79239749 7.19364503 -3.59253891 3.45436433 0 0 Z " fill="#0D51DB" transform="translate(388,357)"/>
<path d="M0 0 C1.485 0.99 1.485 0.99 3 2 C2.67 2.66 2.34 3.32 2 4 C2.99 4.33 3.98 4.66 5 5 C4.67 6.65 4.34 8.3 4 10 C4.66 10.33 5.32 10.66 6 11 C5.01 12.485 5.01 12.485 4 14 C3.32968281 12.0429132 2.66385317 10.08428887 2 8.125 C1.62875 7.03445313 1.2575 5.94390625 0.875 4.8203125 C0 2 0 2 0 0 Z " fill="#3B73DF" transform="translate(303,667)"/>
<path d="M0 0 C0.33 0.66 0.66 1.32 1 2 C0.34 2 -0.32 2 -1 2 C-1.433125 2.928125 -1.433125 2.928125 -1.875 3.875 C-3 6 -3 6 -5 8 C-7.625 8.125 -7.625 8.125 -10 8 C-6.97727468 4.74475735 -3.74281699 2.38179263 0 0 Z " fill="#1A5ADC" transform="translate(416,335)"/>
<path d="M0 0 C-4.9834359 2.49171795 -7.40604574 3.03041444 -13.125 2.5625 C-14.40632812 2.46066406 -15.68765625 2.35882812 -17.0078125 2.25390625 C-18.48894531 2.12822266 -18.48894531 2.12822266 -20 2 C-20 1.67 -20 1.34 -20 1 C-13.31184516 0.37577221 -6.71884955 -0.12920865 0 0 Z " fill="#5A92E6" transform="translate(537,693)"/>
<path d="M0 0 C2.1640625 -0.29296875 2.1640625 -0.29296875 4.625 -0.1875 C5.44226563 -0.16042969 6.25953125 -0.13335938 7.1015625 -0.10546875 C8.04128906 -0.05326172 8.04128906 -0.05326172 9 0 C8.01 1.485 8.01 1.485 7 3 C4.8359375 3.29296875 4.8359375 3.29296875 2.375 3.1875 C1.55773437 3.16042969 0.74046875 3.13335938 -0.1015625 3.10546875 C-0.72804688 3.07066406 -1.35453125 3.03585937 -2 3 C-1.34 2.01 -0.68 1.02 0 0 Z " fill="#0B4ECA" transform="translate(617,559)"/>
<path d="M0 0 C-1.11328125 1.48828125 -1.11328125 1.48828125 -3 3 C-5.91796875 3.29296875 -5.91796875 3.29296875 -9.1875 3.1875 C-10.27417969 3.16042969 -11.36085938 3.13335938 -12.48046875 3.10546875 C-13.31191406 3.07066406 -14.14335938 3.03585937 -15 3 C-12.41464321 1.27642881 -10.96188386 0.55264982 -8.0625 -0.1875 C-7.39347656 -0.36667969 -6.72445312 -0.54585937 -6.03515625 -0.73046875 C-3.75319112 -1.03268678 -2.17973341 -0.68756692 0 0 Z " fill="#3B76E3" transform="translate(647,698)"/>
<path d="M0 0 C0.82810826 3.31243305 1.09278428 5.65976579 1 9 C0.34 9 -0.32 9 -1 9 C-1.33 11.31 -1.66 13.62 -2 16 C-2.66 16 -3.32 16 -4 16 C-2.68 10.72 -1.36 5.44 0 0 Z " fill="#457BE1" transform="translate(885,658)"/>
<path d="M0 0 C1.74965358 -0.05429959 3.49979787 -0.09292823 5.25 -0.125 C6.22453125 -0.14820313 7.1990625 -0.17140625 8.203125 -0.1953125 C11.0196498 0.00137219 12.60949036 0.55431084 15 2 C14 3 14 3 10.9375 3.0625 C9.968125 3.041875 8.99875 3.02125 8 3 C8 2.34 8 1.68 8 1 C5.36 1 2.72 1 0 1 C0 0.67 0 0.34 0 0 Z " fill="#2A69D8" transform="translate(602,558)"/>
<path d="M0 0 C1.98 0 3.96 0 6 0 C5.67 0.66 5.34 1.32 5 2 C5.66 2.66 6.32 3.32 7 4 C3.37 4 -0.26 4 -4 4 C-4 3.67 -4 3.34 -4 3 C-2.35 3 -0.7 3 1 3 C0.67 2.01 0.34 1.02 0 0 Z " fill="#0649C9" transform="translate(692,552)"/>
<path d="M0 0 C-5.21015348 2.17089728 -8.41778771 3.39555307 -14 2 C-14 1.67 -14 1.34 -14 1 C-12.41913952 0.63495397 -10.83516093 0.28339494 -9.25 -0.0625 C-8.36828125 -0.25972656 -7.4865625 -0.45695313 -6.578125 -0.66015625 C-4.01320972 -0.99825872 -2.42908361 -0.81158635 0 0 Z " fill="#3B74DF" transform="translate(431,710)"/>
<path d="M0 0 C3.34944548 5.02416822 3.09834146 9.09951257 3 15 C2.67 15 2.34 15 2 15 C2 13.02 2 11.04 2 9 C1.34 9 0.68 9 0 9 C0 6.03 0 3.06 0 0 Z " fill="#3B78E0" transform="translate(372,620)"/>
<path d="M0 0 C0.66 0 1.32 0 2 0 C2.66 1.98 3.32 3.96 4 6 C2.02 6.99 2.02 6.99 0 8 C-0.79953138 4.71303767 -1.09658936 3.28976808 0 0 Z " fill="#1E5DD9" transform="translate(363,602)"/>
<path d="M0 0 C2.62187494 1.04874998 3.79371361 1.64931313 5.25 4.125 C5.4975 4.74375 5.745 5.3625 6 6 C0.25 4.25 0.25 4.25 -2 2 C-1.34 1.34 -0.68 0.68 0 0 Z " fill="#215FDB" transform="translate(608,597)"/>
<path d="M0 0 C2.475 0.99 2.475 0.99 5 2 C4.67 3.65 4.34 5.3 4 7 C3.34 6.67 2.68 6.34 2 6 C2 5.34 2 4.68 2 4 C1.01 4 0.02 4 -1 4 C-0.67 2.68 -0.34 1.36 0 0 Z " fill="#1A5ADA" transform="translate(402,580)"/>
<path d="M0 0 C3.37462715 0.54723683 5.08235 1.0549 8 3 C3.23692563 3.95261487 -1.1666528 4.08333357 -6 4 C-6 3.67 -6 3.34 -6 3 C-4.02 2.67 -2.04 2.34 0 2 C0 1.34 0 0.68 0 0 Z " fill="#1C5DD2" transform="translate(616,262)"/>
<path d="M0 0 C1.258125 -0.04125 2.51625 -0.0825 3.8125 -0.125 C4.52019531 -0.14820313 5.22789062 -0.17140625 5.95703125 -0.1953125 C8 0 8 0 11 2 C7.18243176 3.37432457 3.92744671 2.67975039 0 2 C0 1.34 0 0.68 0 0 Z " fill="#2B6ADC" transform="translate(590,591)"/>
<path d="M0 0 C-3.44175522 2.14699969 -5.7720292 2.09856795 -9.75 1.625 C-10.73484375 1.51414062 -11.7196875 1.40328125 -12.734375 1.2890625 C-13.48203125 1.19367187 -14.2296875 1.09828125 -15 1 C-15 0.67 -15 0.34 -15 0 C-4.44191344 -1.33257403 -4.44191344 -1.33257403 0 0 Z " fill="#A2C3F0" transform="translate(598,709)"/>
<path d="M0 0 C-1.8125 1.0625 -1.8125 1.0625 -4 2 C-4.99 1.67 -5.98 1.34 -7 1 C-7.33 1.66 -7.66 2.32 -8 3 C-10.97 2.505 -10.97 2.505 -14 2 C-14 1.67 -14 1.34 -14 1 C-12.41913952 0.63495397 -10.83516093 0.28339494 -9.25 -0.0625 C-8.36828125 -0.25972656 -7.4865625 -0.45695313 -6.578125 -0.66015625 C-4.01320972 -0.99825872 -2.42908361 -0.81158635 0 0 Z " fill="#427DE2" transform="translate(557,660)"/>
<path d="M0 0 C0.99 0.33 1.98 0.66 3 1 C3 2.65 3 4.3 3 6 C1.68 6.33 0.36 6.66 -1 7 C-0.67 4.69 -0.34 2.38 0 0 Z " fill="#D8E5F9" transform="translate(357,602)"/>
<path d="M0 0 C0.33 0 0.66 0 1 0 C1 2.97 1 5.94 1 9 C0.01 9.495 0.01 9.495 -1 10 C-2.25 3.375 -2.25 3.375 0 0 Z " fill="#2867E7" transform="translate(793,493)"/>
<path d="M0 0 C0.66 0.66 1.32 1.32 2 2 C1.61121812 5.01305957 0.73543126 6.39685311 -1 9 C-1.66 9 -2.32 9 -3 9 C-2.01 6.03 -1.02 3.06 0 0 Z " fill="#2863DD" transform="translate(318,450)"/>
<path d="M0 0 C0.66 0.33 1.32 0.66 2 1 C1.21625 1.598125 0.4325 2.19625 -0.375 2.8125 C-3.14574323 4.91085249 -3.14574323 4.91085249 -5 8 C-6.32 7.67 -7.64 7.34 -9 7 C-6.03 4.69 -3.06 2.38 0 0 Z " fill="#D7E7F9" transform="translate(396,327)"/>
<path d="M0 0 C4.29 0.33 8.58 0.66 13 1 C13 1.33 13 1.66 13 2 C6.565 2.495 6.565 2.495 0 3 C0 2.01 0 1.02 0 0 Z " fill="#2163DE" transform="translate(998,981)"/>
<path d="M0 0 C2.31 0.33 4.62 0.66 7 1 C7 1.66 7 2.32 7 3 C4.69 3.33 2.38 3.66 0 4 C0 2.68 0 1.36 0 0 Z " fill="#3A75E7" transform="translate(415,697)"/>
<path d="M0 0 C3.3 0.33 6.6 0.66 10 1 C9.67 1.66 9.34 2.32 9 3 C6.69 3 4.38 3 2 3 C2 2.34 2 1.68 2 1 C1.34 0.67 0.68 0.34 0 0 Z " fill="#2C69DB" transform="translate(384,689)"/>
<path d="M0 0 C0.99 0.33 1.98 0.66 3 1 C1.68 2.32 0.36 3.64 -1 5 C-1.33 3.68 -1.66 2.36 -2 1 C-1.34 0.67 -0.68 0.34 0 0 Z M-5 6 C-4.01 6.495 -4.01 6.495 -3 7 C-3.99 7.495 -3.99 7.495 -5 8 C-5 7.34 -5 6.68 -5 6 Z " fill="#0F54D5" transform="translate(761,597)"/>
<path d="M0 0 C0.66 0.99 1.32 1.98 2 3 C0.61410019 6.09162264 -0.49183541 7.49183541 -3 10 C-2.01 6.7 -1.02 3.4 0 0 Z " fill="#C3D7F6" transform="translate(291,469)"/>
<path d="M0 0 C0.66 0 1.32 0 2 0 C2 0.99 2 1.98 2 3 C1.01 3.495 1.01 3.495 0 4 C-0.33 4.99 -0.66 5.98 -1 7 C-3.0625 7.6875 -3.0625 7.6875 -5 8 C-4.21718695 6.66144944 -3.42348123 5.32926356 -2.625 4 C-2.18414062 3.2575 -1.74328125 2.515 -1.2890625 1.75 C-0.86367188 1.1725 -0.43828125 0.595 0 0 Z " fill="#205BDE" transform="translate(347,402)"/>
<path d="M0 0 C0 0.99 0 1.98 0 3 C-3.3 2.67 -6.6 2.34 -10 2 C-10 1.67 -10 1.34 -10 1 C-6.59437148 0.22157062 -3.49234244 -0.09978121 0 0 Z " fill="#2662D6" transform="translate(650,268)"/>
<path d="M0 0 C-3.08888522 2.05925681 -3.70935927 2.2390374 -7.1875 2.125 C-9.0746875 2.063125 -9.0746875 2.063125 -11 2 C-6.98764085 -0.6749061 -4.6342454 -1.48957888 0 0 Z " fill="#417CE3" transform="translate(631,702)"/>
<path d="M0 0 C2 3 2 3 2 7 C1.34 7 0.68 7 0 7 C0 7.66 0 8.32 0 9 C-0.66 9 -1.32 9 -2 9 C-1.34 6.03 -0.68 3.06 0 0 Z " fill="#2361DC" transform="translate(776,645)"/>
<path d="M0 0 C0.66 0.66 1.32 1.32 2 2 C-0.97 4.475 -0.97 4.475 -4 7 C-4.66 6.67 -5.32 6.34 -6 6 C-4.02 4.02 -2.04 2.04 0 0 Z " fill="#2263DD" transform="translate(518,564)"/>
<path d="M0 0 C0.99 0.33 1.98 0.66 3 1 C0.525 4.465 0.525 4.465 -2 8 C-2.33 7.01 -2.66 6.02 -3 5 C-1.5625 2.3125 -1.5625 2.3125 0 0 Z " fill="#135BDE" transform="translate(442,483)"/>
<path d="M0 0 C-3.44450737 2.29633824 -5.93812283 2.54016485 -10 3 C-4.375 -1.3125 -4.375 -1.3125 0 0 Z " fill="#336DE1" transform="translate(458,313)"/>
<path d="M0 0 C0.33 0 0.66 0 1 0 C1 1.65 1 3.3 1 5 C0.01 5.33 -0.98 5.66 -2 6 C-2 6.66 -2 7.32 -2 8 C-2.66 8 -3.32 8 -4 8 C-2.87548273 5.0280615 -1.77706209 2.66559313 0 0 Z " fill="#1757DF" transform="translate(415,557)"/>
<path d="M0 0 C2.31 0.33 4.62 0.66 7 1 C3.91111478 3.05925681 3.29064073 3.2390374 -0.1875 3.125 C-2.0746875 3.063125 -2.0746875 3.063125 -4 3 C-2.68 2.67 -1.36 2.34 0 2 C0 1.34 0 0.68 0 0 Z " fill="#4980E1" transform="translate(636,559)"/>
<path d="M0 0 C0.33 0 0.66 0 1 0 C1.92470553 4.71599818 2.22923777 7.67265609 0 12 C-0.33 12 -0.66 12 -1 12 C-1.14285714 3.42857143 -1.14285714 3.42857143 0 0 Z " fill="#B5CEF4" transform="translate(274,539)"/>
<path d="M0 0 C0.66 0.99 1.32 1.98 2 3 C1.34 3 0.68 3 0 3 C0.309375 3.928125 0.309375 3.928125 0.625 4.875 C0.74875 5.57625 0.8725 6.2775 1 7 C0.34 7.66 -0.32 8.32 -1 9 C-1.66 9 -2.32 9 -3 9 C-2.01 6.03 -1.02 3.06 0 0 Z " fill="#C4D9F7" transform="translate(299,449)"/>
</svg>
